<?xml version="1.0" encoding="iso-8859-1"?>
<!-- Generator: Adobe Illustrator 19.0.0, SVG Export Plug-In . SVG Version: 6.00 Build 0)  -->
<svg version="1.1" id="Layer_1" xmlns="http://www.w3.org/2000/svg" xmlns:xlink="http://www.w3.org/1999/xlink" x="0px" y="0px"
	 viewBox="0 0 499.995 499.995" style="enable-background:new 0 0 499.995 499.995;" xml:space="preserve">
<g>
	<g>
		<g>
			<path d="M362.601,320.387c-12.648,0-25.079,2.644-36.487,7.708l-32.028-65.17c3.332-6.697,5.079-14.073,5.079-21.639
				c0-5.148-0.837-10.27-2.429-15.143c2.464-2.075,4.93-4.235,7.377-6.481c14.119-12.958,26.64-27.893,37.217-44.388
				c10.887-16.979,19.642-34.991,26.022-53.538c6.592-19.165,10.563-38.719,11.802-58.117c0.642-10.049,0.567-19.721-0.221-28.746
				c-0.685-7.831-1.648-16.21-4.059-24.471l-0.061-0.233c-0.339-1.315-1.044-4.052-3.352-6.455c-2.592-2.698-6.181-4.032-9.852-3.65
				c-3.747,0.386-7.211,2.573-9.265,5.851c-1.562,2.49-2.865,4.992-4.126,7.412c-0.391,0.749-0.78,1.496-1.173,2.233
				c-2.011,3.773-4.03,7.541-6.049,11.31c-4.265,7.96-8.471,16.08-12.577,24.009c-9.026,17.425-17.713,34.714-25.758,50.802
				c-8.545,17.092-16.807,34.152-25.948,53.082c-6.284,13.016-12.388,25.923-18.227,38.515c-2.631-0.437-5.301-0.667-7.998-0.667
				c-2.707,0-5.387,0.232-8.03,0.673c-0.479-1.031-0.956-2.064-1.436-3.095c-8.294-17.817-16.782-35.479-24.718-51.911
				c-8.752-18.124-18.007-36.628-26.172-52.954c-8.69-17.377-17.318-34.196-25.646-49.992c-3.641-6.905-7.885-14.93-12.183-22.777
				l-2.52-4.579l-0.125-0.244c-0.792-1.563-3.201-6.318-9.037-7.49c-1.977-0.397-11.983-1.708-14.946,11.7
				c-0.035,0.158-0.066,0.307-0.099,0.439c-4.005,16.14-5.117,34.891-3.306,55.731c1.717,19.759,6.131,39.388,13.121,58.341
				c7.036,19.081,16.08,36.904,26.882,52.975c10.966,16.315,23.669,30.858,37.756,43.223c1.378,1.21,2.778,2.399,4.186,3.572
				c-1.576,4.85-2.404,9.946-2.404,15.066c0,7.566,1.747,14.942,5.08,21.639l-32.196,65.511
				c-11.611-5.289-24.318-8.049-37.298-8.049c-49.516,0-89.8,40.284-89.8,89.8c0,49.517,40.284,89.801,89.8,89.801
				c0.391,0,0.778-0.008,1.188-0.021c10.986-0.257,20.838-6.505,25.756-16.329c0.032-0.062,0.063-0.123,0.094-0.185l86.052-175.097
				l86.051,175.096c5.014,10.202,15.192,16.54,26.564,16.54c0.614,0,1.251-0.023,1.942-0.071
				c23.365-0.632,45.275-10.236,61.724-27.062c16.528-16.907,25.63-39.164,25.63-62.672
				C452.401,360.672,412.117,320.387,362.601,320.387z M277.15,200.556c5.633-12.132,11.527-24.574,17.575-37.097
				c9.108-18.863,17.338-35.858,25.826-52.835c8.011-16.021,16.66-33.233,25.667-50.625c4.036-7.791,8.208-15.848,12.407-23.685
				c0.102-0.19,0.204-0.381,0.306-0.571c0.026,0.291,0.052,0.582,0.078,0.871c0.701,8.025,0.764,16.683,0.186,25.73
				c-1.125,17.616-4.744,35.409-10.755,52.886c-5.862,17.041-13.918,33.61-23.946,49.248c-9.648,15.046-21.055,28.655-33.904,40.448
				c-1.352,1.24-2.708,2.454-4.064,3.637l-0.001,0.017c-2.776-3.06-5.924-5.758-9.381-8.022L277.15,200.556z M178.873,168.269
				c-9.914-14.751-18.23-31.149-24.716-48.738c-6.374-17.283-10.397-35.166-11.96-53.152c-0.958-11.024-1.021-21.316-0.194-30.781
				c1.674,3.148,3.286,6.201,4.793,9.06c8.261,15.67,16.823,32.361,25.45,49.61c8.136,16.269,17.357,34.707,26.05,52.706
				c7.904,16.366,16.354,33.95,24.596,51.654c0.302,0.65,0.604,1.3,0.907,1.949h0.009c-3.472,2.277-6.632,4.992-9.415,8.072
				l-0.001-0.016c-0.39-0.337-0.779-0.676-1.166-1.016C200.434,196.391,188.876,183.152,178.873,168.269z M238.037,288.35
				l-91.493,186.166c-0.021,0.042-0.042,0.084-0.063,0.126c-1.59,3.213-4.803,5.256-8.386,5.33
				c-0.044,0.001-0.089,0.002-0.133,0.004c-0.195,0.007-0.378,0.012-0.563,0.012c-38.488,0-69.8-31.313-69.8-69.801
				c0-38.487,31.313-69.8,69.8-69.8c12.986,0,25.603,3.538,36.485,10.232c2.399,1.475,5.307,1.87,8.015,1.09
				c2.706-0.782,4.957-2.669,6.199-5.196l32.74-66.618l-0.024-0.044c5.126,3.951,10.988,6.848,17.268,8.499H238.037z
				 M226.547,257.065c-3.098-4.687-4.735-10.143-4.735-15.778c0-4.754,1.127-9.279,3.351-13.453
				c3.295-6.187,8.713-10.946,15.254-13.401c3.224-1.209,6.612-1.822,10.071-1.822c3.457-0.002,6.84,0.609,10.056,1.815
				c6.542,2.451,11.961,7.205,15.26,13.386c2.23,4.179,3.36,8.712,3.36,13.475c0,5.635-1.637,11.092-4.735,15.778
				c-5.337,8.076-14.287,12.897-23.941,12.897C240.834,269.962,231.884,265.141,226.547,257.065z M364.313,479.933
				c-0.173,0.004-0.347,0.013-0.52,0.026c-3.929,0.3-7.577-1.815-9.303-5.329l-91.548-186.28h-0.045
				c6.28-1.651,12.141-4.548,17.268-8.499l-0.024,0.044l32.524,66.18c1.233,2.511,3.462,4.39,6.145,5.181
				c2.684,0.794,5.574,0.423,7.973-1.015c10.75-6.446,23.136-9.854,35.818-9.854c38.488,0,69.8,31.313,69.8,69.8
				C432.401,447.73,401.857,479.018,364.313,479.933z"/>
			<path d="M362.601,359.553c-10.626,0-20.784,3.246-29.373,9.387c-3.981,2.846-5.317,8.154-3.159,12.546l35.374,71.977
				c1.717,3.495,5.246,5.591,8.974,5.591c0.97,0,1.955-0.142,2.924-0.438c21.135-6.461,35.896-26.376,35.896-48.429
				C413.235,382.267,390.52,359.553,362.601,359.553z M379.114,435.938l-26.839-54.611c3.275-1.17,6.755-1.773,10.326-1.773
				c16.892,0,30.635,13.742,30.635,30.634C393.235,420.679,387.705,430.373,379.114,435.938z"/>
			<path d="M167.679,369.586c-8.76-6.563-19.23-10.032-30.28-10.032c-27.92,0-50.635,22.714-50.635,50.634
				c0,22.6,15.201,42.65,36.965,48.759c0.898,0.252,1.807,0.373,2.704,0.373c3.734,0,7.259-2.102,8.973-5.59l35.252-71.729
				C172.778,377.683,171.527,372.469,167.679,369.586z M121.619,436.437c-9.024-5.453-14.855-15.362-14.855-26.25
				c0-16.892,13.743-30.634,30.635-30.634c3.888,0,7.653,0.705,11.159,2.07L121.619,436.437z"/>
		</g>
	</g>
</g>
<g>
</g>
<g>
</g>
<g>
</g>
<g>
</g>
<g>
</g>
<g>
</g>
<g>
</g>
<g>
</g>
<g>
</g>
<g>
</g>
<g>
</g>
<g>
</g>
<g>
</g>
<g>
</g>
<g>
</g>
</svg>
