<?xml version="1.0" encoding="iso-8859-1"?>
<!-- Generator: Adobe Illustrator 17.1.0, SVG Export Plug-In . SVG Version: 6.00 Build 0)  -->
<!DOCTYPE svg PUBLIC "-//W3C//DTD SVG 1.1//EN" "http://www.w3.org/Graphics/SVG/1.1/DTD/svg11.dtd">
<svg version="1.1" id="Capa_1" xmlns="http://www.w3.org/2000/svg" xmlns:xlink="http://www.w3.org/1999/xlink" x="0px" y="0px"
	 viewBox="0 0 298.24 298.24" style="enable-background:new 0 0 298.24 298.24;" xml:space="preserve">
<path d="M272.234,183.003l-77.817-82.1c0.551-5.783,0.794-11.728,0.69-17.766c-0.37-21.43-4.934-41.653-12.85-56.945
	C173.514,9.302,161.495,0,148.414,0l-0.468,0.004c-13.195,0.228-25.011,9.856-33.269,27.112
	c-7.461,15.589-11.365,36.045-10.993,57.601c0.005,0.291,0.019,0.579,0.026,0.869l-90.507,85.785
	c-6.013,5.699-6.268,15.192-0.568,21.205l95.713,100.982c2.949,3.112,6.915,4.682,10.89,4.682c3.704,0,7.415-1.364,10.315-4.113
	l91.968-87.167l39.312,1.354c6.049,0.218,11.691-3.278,14.191-8.83C277.524,193.934,276.421,187.422,272.234,183.003z
	 M148.206,15.002L148.414,15c14.433,0,30.999,28.089,31.695,68.396c0.014,0.815,0.011,1.617,0.012,2.423l-25.958-27.387
	c-2.736-2.888-6.508-4.569-10.485-4.676c-3.951-0.119-7.833,1.371-10.72,4.107l-13.89,13.165
	C121.565,37.681,135.339,15.224,148.206,15.002z M286.804,271.901c-3.886,6.731-10.847,10.75-18.619,10.75
	s-14.733-4.019-18.62-10.751c-3.887-6.731-3.887-14.769,0-21.499l12.125-21c1.34-2.32,3.815-3.75,6.495-3.75s5.155,1.43,6.495,3.75
	l12.124,21C290.691,257.133,290.691,265.17,286.804,271.901z"/>
<g>
</g>
<g>
</g>
<g>
</g>
<g>
</g>
<g>
</g>
<g>
</g>
<g>
</g>
<g>
</g>
<g>
</g>
<g>
</g>
<g>
</g>
<g>
</g>
<g>
</g>
<g>
</g>
<g>
</g>
</svg>
