<?xml version="1.0" encoding="iso-8859-1"?>
<!-- Generator: Adobe Illustrator 16.0.0, SVG Export Plug-In . SVG Version: 6.00 Build 0)  -->
<!DOCTYPE svg PUBLIC "-//W3C//DTD SVG 1.1//EN" "http://www.w3.org/Graphics/SVG/1.1/DTD/svg11.dtd">
<svg version="1.1" id="Capa_1" xmlns="http://www.w3.org/2000/svg" xmlns:xlink="http://www.w3.org/1999/xlink" x="0px" y="0px"
	 width="98.84px" height="98.84px" viewBox="0 0 98.84 98.84" style="enable-background:new 0 0 98.84 98.84;" xml:space="preserve"
	>
<g>
	<g>
		<path d="M31.8,20.582h35.237c0.579,0,1.129-0.251,1.509-0.687c0.38-0.437,0.553-1.017,0.473-1.589L67.534,7.641
			c-0.139-0.989-0.983-1.725-1.981-1.725h-7.479C57.116,2.488,53.476,0,49.42,0c-4.058,0-7.697,2.488-8.655,5.916h-7.479
			c-0.998,0-1.843,0.735-1.98,1.725l-1.484,10.666c-0.08,0.572,0.093,1.152,0.473,1.589C30.671,20.331,31.222,20.582,31.8,20.582z"
			/>
		<path d="M90.919,6.211c0-1.104-0.896-2-2-2h-13c-1.104,0-2,0.896-2,2v16.482c0,1.103-0.896,2-2,2h-45c-1.104,0-2-0.897-2-2V6.211
			c0-1.104-0.896-2-2-2h-13c-1.104,0-2,0.896-2,2V96.84c0,1.104,0.896,2,2,2h79.002c0.529,0,1.039-0.211,1.414-0.586
			s0.586-0.884,0.586-1.414L90.919,6.211z M64.372,46.367c0,0.828-0.672,1.5-1.5,1.5h-8.443V79.25c0,0.828-0.672,1.5-1.5,1.5h-7.018
			c-0.828,0-1.5-0.672-1.5-1.5V47.867h-8.443c-0.828,0-1.5-0.672-1.5-1.5V41.09c0-0.828,0.672-1.5,1.5-1.5h26.904
			c0.828,0,1.5,0.672,1.5,1.5V46.367z"/>
	</g>
</g>
<g>
</g>
<g>
</g>
<g>
</g>
<g>
</g>
<g>
</g>
<g>
</g>
<g>
</g>
<g>
</g>
<g>
</g>
<g>
</g>
<g>
</g>
<g>
</g>
<g>
</g>
<g>
</g>
<g>
</g>
</svg>
