<svg width="1282" height="722" xmlns="http://www.w3.org/2000/svg" xmlns:xlink="http://www.w3.org/1999/xlink" overflow="hidden"><defs><clipPath id="clip0"><rect x="-1" y="-1" width="1282" height="722"/></clipPath><linearGradient x1="640" y1="261" x2="640" y2="720" gradientUnits="userSpaceOnUse" spreadMethod="reflect" id="fill1"><stop offset="0" stop-color="#A9D18E"/><stop offset="0.77" stop-color="#70AD47"/><stop offset="1" stop-color="#70AD47"/></linearGradient></defs><g clip-path="url(#clip0)" transform="translate(1 1)"><rect x="0" y="0" width="1280" height="720" fill="#3399FF"/><path d="M329.611 283.216C322.443 263.542 359.351 245.423 412.047 242.747 433.399 241.662 455.109 243.283 473.703 247.351 493.405 233.485 539.444 228.215 576.534 235.58 583.02 236.868 588.972 238.501 594.206 240.426 609.55 228.933 646.926 224.263 677.686 229.996 686.2 231.583 693.626 233.878 699.396 236.705 724.128 225.836 767.831 224.493 797.009 233.706 809.272 237.579 817.537 242.92 820.387 248.814 860.91 252.942 884.816 268.58 873.782 283.741 872.854 285.016 871.691 286.265 870.299 287.479 902.799 303.277 894.843 325.921 852.529 338.055 839.357 341.832 823.8 344.278 807.358 345.155 806.993 362.152 769.766 375.82 724.209 375.684 708.989 375.638 694.099 374.022 681.188 371.015 665.779 390.07 612.032 400.84 561.14 395.071 539.812 392.653 521.384 387.54 508.999 380.603 456.893 392.339 389.26 386.026 357.938 366.503 357.543 366.257 357.155 366.009 356.774 365.76 322.672 367.25 291.783 358.164 287.78 345.465 285.647 338.696 291.631 331.921 304.138 326.946 274.611 320.455 264.692 306.208 281.984 295.124 291.959 288.73 309.456 284.502 329.092 283.742Z" fill="#FFFFFF" fill-rule="evenodd"/><path d="M958.104 389.561C954.997 371.866 970.995 355.57 993.835 353.163 1003.09 352.187 1012.5 353.645 1020.56 357.303 1029.1 344.832 1049.05 340.093 1065.13 346.717 1067.94 347.875 1070.52 349.344 1072.79 351.076 1079.44 340.738 1095.64 336.538 1108.97 341.695 1112.66 343.122 1115.88 345.186 1118.38 347.729 1129.1 337.953 1148.05 336.745 1160.69 345.032 1166.01 348.515 1169.59 353.318 1170.83 358.619 1188.39 362.332 1198.75 376.397 1193.97 390.034 1193.57 391.18 1193.06 392.303 1192.46 393.395 1206.55 407.604 1203.1 427.97 1184.76 438.884 1179.05 442.281 1172.31 444.481 1165.18 445.27 1165.02 460.557 1148.89 472.85 1129.14 472.727 1122.54 472.686 1116.09 471.233 1110.49 468.528 1103.81 485.667 1080.52 495.354 1058.46 490.164 1049.21 487.99 1041.23 483.391 1035.86 477.152 1013.27 487.707 983.958 482.029 970.382 464.47 970.211 464.249 970.043 464.026 969.878 463.802 955.097 465.142 941.708 456.97 939.973 445.549 939.048 439.461 941.642 433.367 947.063 428.892 934.265 423.054 929.965 410.24 937.46 400.271 941.784 394.52 949.368 390.718 957.879 390.035Z" fill="#FFFFFF" fill-rule="evenodd"/><path d="M873.069 95.8667C869.323 73.5147 888.615 52.9302 916.161 49.8898 927.322 48.6578 938.671 50.4995 948.39 55.1202 958.689 39.3671 982.755 33.3802 1002.14 41.7479 1005.53 43.2112 1008.64 45.0657 1011.38 47.2537 1019.4 34.1956 1038.94 28.8904 1055.02 35.4043 1059.47 37.2071 1063.35 39.8145 1066.37 43.0261 1079.29 30.6773 1102.14 29.1519 1117.39 39.6191 1123.8 44.0184 1128.12 50.0862 1129.61 56.7822 1150.79 61.4724 1163.29 79.2384 1157.52 96.4635 1157.04 97.9116 1156.43 99.3305 1155.7 100.71 1172.69 118.658 1168.53 144.384 1146.41 158.169 1139.53 162.46 1131.4 165.239 1122.8 166.236 1122.61 185.545 1103.15 201.074 1079.34 200.919 1071.38 200.867 1063.6 199.031 1056.85 195.615 1048.79 217.263 1020.7 229.499 994.096 222.944 982.947 220.197 973.314 214.388 966.841 206.507 939.603 219.84 904.25 212.668 887.877 190.488 887.67 190.209 887.467 189.928 887.268 189.645 869.442 191.338 853.296 181.015 851.203 166.588 850.088 158.898 853.216 151.201 859.754 145.548 844.319 138.173 839.134 121.987 848.173 109.395 853.388 102.131 862.534 97.3281 872.798 96.4647Z" fill="#FFFFFF" fill-rule="evenodd"/><path d="M279.732 261.014C335.772 261.291 379.717 265.729 461.963 276.219 596.996 294.94 734.61 325.28 810.297 338.191 930.709 360.785 1017.58 385.315 1171.53 405.972 1205.08 410.975 1230.88 414.526 1251.84 417.168L1280 420.517 1280 720 0 720 0 295.378 12.3531 290.26C47.6165 278.801 91.2659 270.732 154.912 264.6 208.13 262.179 246.108 260.847 279.732 261.014Z" fill="url(#fill1)" fill-rule="evenodd"/><path d="M1280 422 1280 720 0 720 0 497.097 48.5762 485.758C94.2081 475.5 145.283 465.545 218.128 456.798 444.546 440.032 548.401 442.612 713.537 435.518L1168.95 429.715C1205.4 427.942 1232.71 426.168 1254.3 424.395Z" fill="#70AD47" fill-rule="evenodd"/><rect x="0" y="1" width="1280" height="719" fill="#FFFFFF" fill-opacity="0.301961"/></g></svg>