<svg width="1042" height="722" xmlns="http://www.w3.org/2000/svg" xmlns:xlink="http://www.w3.org/1999/xlink" overflow="hidden"><defs><clipPath id="clip0"><rect x="-1" y="-1" width="1042" height="722"/></clipPath><linearGradient x1="520" y1="261" x2="520" y2="720" gradientUnits="userSpaceOnUse" spreadMethod="reflect" id="fill1"><stop offset="0" stop-color="#A9D18E"/><stop offset="0.77" stop-color="#70AD47"/><stop offset="1" stop-color="#70AD47"/></linearGradient></defs><g clip-path="url(#clip0)" transform="translate(1 1)"><rect x="0" y="0" width="1040" height="720" fill="#3399FF"/><path d="M227.282 261.014C272.815 261.291 308.52 265.729 375.345 276.219 485.059 294.94 596.87 325.28 658.366 338.191 756.201 360.785 826.782 385.315 951.87 405.972 979.124 410.975 1000.09 414.526 1017.12 417.168L1040 420.517 1040 720 0 720 0 295.378 10.0369 290.26C38.6884 278.801 74.1535 270.732 125.866 264.6 169.106 262.179 199.963 260.847 227.282 261.014Z" fill="url(#fill1)" fill-rule="evenodd"/><path d="M1040 422 1040 720 0 720 0 497.097 39.4681 485.758C76.5441 475.5 118.042 465.545 177.229 456.798 361.193 440.032 445.576 442.612 579.749 435.518L949.774 429.715C979.387 427.942 1001.57 426.168 1019.12 424.395Z" fill="#70AD47" fill-rule="evenodd"/></g></svg>