<!--?xml version="1.0" encoding="utf-8"?-->
<!-- Generator: Adobe Illustrator 18.1.1, SVG Export Plug-In . SVG Version: 6.00 Build 0)  -->

<svg version="1.1" id="_x32_" xmlns="http://www.w3.org/2000/svg" xmlns:xlink="http://www.w3.org/1999/xlink" x="0px" y="0px" viewBox="0 0 512 512" style="width: 256px; height: 256px; opacity: 1;" xml:space="preserve">
<style type="text/css">
	.st0{fill:#4B4B4B;}
</style>
<g>
	<path class="st0" d="M491.879,156.348c-19.45-45.96-51.89-85.017-92.734-112.614C358.3,16.13,308.964-0.008,256.004,0
		c-35.306,0-69.02,7.163-99.654,20.122c-45.961,19.45-85.017,51.89-112.614,92.734C16.13,153.701-0.008,203.036,0,255.996
		c0,35.306,7.163,69.02,20.122,99.654c19.45,45.961,51.882,85.017,92.735,112.614c40.844,27.605,90.18,43.743,143.147,43.735
		c35.299,0,69.012-7.163,99.648-20.121c45.96-19.45,85.017-51.882,112.614-92.735c27.604-40.844,43.742-90.18,43.734-143.147
		C512,220.698,504.837,186.984,491.879,156.348z M241.412,128.135c3.914-1.382,10.421,3.07,8.843,7.272
		c-2.624,6.983,6.491,10.436,9.49,14.474c2.624,3.522,7.585,14.708-3.148,12.567c-5.094-1.015-6.866,5.234-13.623,1.313
		c1.672-2.382,8.382-17.825,3.312-17.583C243.202,146.327,238.367,131.188,241.412,128.135z M233.812,142.281
		C231.43,142.96,235.648,141.75,233.812,142.281c8.499-2.437,8.859,11.693,4.882,14.872c-8.303,6.617-8.654-0.328-7.241-5.96
		C232.086,148.71,225.009,144.804,233.812,142.281z M48.445,168.331c5.914-13.966,13.224-27.199,21.708-39.572
		c3.796-0.343,6.022-2.077,11.201-6.788c4.898,5.999,9.787,11.998,14.693,17.997c1.5,1.836-3.25,4.109-0.938,6.194
		c2.921,2.632,4.999,2.75,8.053-0.875c2.008,3.632,4.007,7.272,6.015,10.905c-6.03,2.484-11.014,5.296-17.52,5.171
		c-10.319-0.218-15.404-1.18-23.465,5.725c3.374,5.32,7.108,1.96,11.654,0c-2.07,6.093,0.914,14.842,7.897,15.802
		c-3.078,2.96-6.163,5.913-9.233,8.874c-1.413,1.359-5.233-3.586-0.921-6.616c-1.57-1.203-4.835-2.562-6.764-3.015
		c-0.618,7.194-7.491,2.984-10.53,7.522c-3.312,4.937,3.132,8.022-4.078,10.085c-12.084,3.452-8.655,15.88-17.872,23.019
		c-0.952,0.742-3.358,2.203-5.678,3.835C35.322,206.184,40.712,186.641,48.445,168.331z M73.246,276.415
		c-0.664-0.383-1.336-0.774-2.008-1.164c-0.468-2.203,5.586-1.289,6.374-0.657C79.464,276.071,73.745,276.321,73.246,276.415z
		 M50.687,273.158c0.961,0.328,1.804,0.171,2.539-0.477c-0.938-0.758-1.945-1.414-3.008-1.96
		c-0.875-3.484,18.575,2.672,15.818,4.226c-2,1.133-19.754,1.282-18.84-0.578c0.89-1.116,2.062-1.523,3.484-1.21
		C49.5,272.712,50.203,272.978,50.687,273.158z M30.846,260.792c7.421,2.101,14.67,5.077,15.826,5.842
		c0.305,0.211-2.733,1.437-1.758,1.765c0.985,0.227,1.906,0.586,2.796,1.055c0.875,0.726-12.068,3.663-11.31,0.695
		c0.64-0.828,1.367-1.578,2.172-2.265c-0.149,0.203-3.766-1.781-7.656-3.609C30.877,263.12,30.877,261.948,30.846,260.792z
		 M34.893,273.915c1.336-0.274,9.084,1.78,5.686,3.507c-1.148-0.164-2.296-0.336-3.437-0.508
		C34.838,276.477,34.088,275.477,34.893,273.915z M167.386,365.564c-4.898,5.21-4.71,7.397-5.366,13.959
		c-0.867,8.631-1.936,25.558-11.646,26.207c-15.982,1.062-20.544,14.216-25.082,26.69c-0.718,2-1.531,3.726-2.398,5.265
		c-20.926-15.364-39.134-34.228-53.678-55.764c-15.63-23.152-27.042-49.336-33.213-77.502c2.265,1.031,3.171,3.312,3.179,5.663
		c0,0.023,0,0.054,0,0.086c0.141-0.187,0.258-0.382,0.43-0.562c1.555-1.952,13.935-20.379,12.92-7.843
		c6.999,1.445,6.038-3.921,11.154-4.772c5.499-0.914,6.788,7.108,12.201,5.39c9.498-3.023,10.186-1.555,15.411,6.288
		c5.366,8.046,18.419,4.75,25.636,9.819c5.812,4.085,6.866,8.779,7.702,15.614c0.344,2.858,11.78,3.25,14.466,3.25
		c2.867,0,2.429,4.062,3.655,5.6c1,1.258,5.07,0.797,6.374,0.968c6.592,0.829,14.076,2.632,19.466,6.687
		C174.776,355.253,171.729,360.932,167.386,365.564z M195.304,92.75c1.585-0.336,4.342,2.726,5.248,2.125
		c3.203-2.149,2.492-2.289,7.171-2.554c1.274-0.07,20.646,1.429,15.357,6.74c-0.007,0.008-0.007,0.008-0.007,0.008
		c0,0.008,0,0.008-0.008,0.008c-7.452,7.436-13.256,4.96-21.988,4.96C197.318,104.037,187.977,94.265,195.304,92.75z
		 M415.758,398.574c-3.179,10.991-2.187,13.771-12.842,17.474c-3.343-10.388-2.257-16.716-2.257-27.448
		c0-0.367,14.552-13.873,16.169-15.802C421.984,382.646,418.766,388.177,415.758,398.574z M481.068,264.502
		c-2.241-2.828-4.249-6.178-6.327-8.264c-4.491-4.491-16.732-0.938-23.738-1.882c-6.179-0.828-7.726,0.218-9.905-5.586
		c-1.156-3.085-5.343,0.203-8.21,0.477c-8.694,0.82-12.56-13.334-20.575-8.803c2.578,4.038,10.365,16.24,13.584,17.31
		c6.514,2.172,4.96-6.835,12.74-4.522c-0.618,2.366,0.281,5.155-0.375,7.514c22.738-5.748,3.14,23.129-6.905,20.981
		c-2.75-0.594-1.695,3.5-4.601,4.343c-4.452,1.304-8.905,2.601-13.365,3.898c-5.648,1.648-10.654,5.758-13.842,0.297
		c-7.428-12.724-12.263-28.401-21.621-38.658c-1.616-1.773-4.421-4.444-6.452-7.373c0.078,0.234,0.148,0.484,0.234,0.718
		c-1.804-1.313-4.476-1.469-6.397-2.624c-2.321,6.444,6.491,15.021,10.177,20.285c4.75,6.781,5.882,16.154,10.882,22.575
		c2.148,2.765,6.022,4.139,7.974,7.076c1.657,2.484,5.156,10.655,7.82,11.725c4.077,1.64,17.302-4.468,21.808-5.64
		c-2.398,5.765-7.678,25.332-13.224,27.816c-10.6,4.75-13.278,9.03-20.113,18.677c-0.539,0.75-5.554,6.256-5.617,6.007
		c1.266,4.944,2.531,9.888,3.789,14.832c0.936,3.664,2.336,20.138-0.485,20.966c-13.006,3.859-13.966,7.514-14.286,20.708
		c-0.133,5.429-6.46,13.091-10.506,17.739c-5.936,6.819-10.545,15.99-19.715,17.263c-8.491,1.179-16.997,2.28-25.512,3.39
		c0-6.881,0.633-9.397-3.694-14.583c-5.085-6.101-5.827-7.859-6.843-15.74c-1.141-8.905-11.92-21.231-9.428-29.058
		c4.906-15.381,3.523-20.887-0.562-36.728c-1.226-4.773-7.186-7.343-8.413-11.803c-0.96-3.46,1.126-11.951,1.126-15.794
		c-7.382,0.616-8.663,1.046-14.389-3.632c-4.694-3.835-9.194-0.352-14.747,1.445c-4.609,1.492-11.616-0.437-16.427-0.773
		c-3.867-0.274-9.585,4.093-13.1,2.96c-7.413-2.39-18.2-21.575-23.309-27.644c-4.804-5.686-1.867-19.145-2.226-26.94
		c-0.484-10.373,12.74-20.262,20.184-24.98c2.047-1.297,3.109-8.397,5.898-11.1c3.953-3.835,6.499-8.123,12.045-8.42
		c9.764-0.516,20.903-5.335,31.026-6.764c5.632-0.797,11.272-1.594,16.912-2.39c2.328-0.329,6.475,8.389,0.758,10.1
		c3.39,6.709,14.833,4.632,15.81,7.561c1.929,5.788,9.373,4.906,15.029,5.968c-0.782-14.225,10.88-3.976,17.746-2.047
		c5.202,1.452,8.679-1.695,13.842-1.703c4.288-0.008,9.326,2.07,13.537,3.008c0.007,0.054,0.023,0.094,0.038,0.148
		c0.07-0.328,0.157-0.656,0.29-0.984c2.812-7.03,4.178-11.21,4.178-18.724c-4.468,0.531-18.551,4.796-22.176,2.632
		c-2.164-1.289-4.25-8.014-5.436-10.248c-2.062-3.906,0.687-3.859,4.265-6.194c12.318-8.03,26.535-2.484,39.892-5.366
		c-1-4.85-3.57-7.178-7.14-10.154c-5.35-4.453-4.273-5.054-3.014-12.029c-3.508,1-7.015,2-10.53,3.007
		c1.296,1.531,1.336,4.132,2.632,5.639c-8.828,6.148-6.359-5.163-12.404-6.006c-5.39-0.766-6.804,8.154-9.538,11.388
		c-3.906,4.64,1.672,8.303-4.562,10.6c-4.351,1.602-7.241,5.577-12.217,3.952c3.664,2.024,5.882,4.976,4.882,9.022
		c-1.453-0.798-3.468-0.641-4.882-1.5c0.727,1.984,0.298,4.444,1.125,6.381c-5.984-2.695-11.928-12.521-12.974-18.802
		c-0.898-5.374-14.286-12.513-18.989-16.536c-7.577,8.288,13.286,12.63,15.224,19.739c-0.141-0.531-4.022,11.662-4.319,11.842
		c-5.242,3.249-4.242-7.679-5.96-9.249c-5.147-4.671-15.669-19.348-21.254-14.825c-7.671,6.218-4.616-1.062-10.818,0.875
		c-5.835,1.82-3.156,7.436-6.757,8.514c-9.662,2.898-2.382,5.866-8.155,10.678c-5.717,4.765-6.616,4.75-14.029,4.601
		c-14.138-0.266-16.872-3.624-15.458-17.81c1.203-11.959,14.513-7.014,24.355-6.858c3.601,0.062,2.211-9.233,0.297-11.146
		c-3.32-3.312-7.819-2.375-10.279-6.89c14.505-2.593,18.176-10.045,29.705-18.051c1.852-1.282,12.811-5.327,12.725-6.499
		c-0.211-3.257-2.789-15.615,4.952-14.185c7.217,1.343-3.304,12.146,2.554,12.466c3.296,0.188,12.014,4.523,12.802,3.664
		c4.648-5.07,10.162-3.164,16.92-2.992c2.335,0.062,5.46-11.146,6.452-13.513c8.279,8.366,6.725-2.53,5.632-7.522
		c3.101,0.117,14.599,1.96,16.552-2.25c3.586-7.71-8.764-4.898-12.224-3.945c-4.085,1.11-11.778,2.039-13.349-4.327
		c-0.508-2.085,4.304-12.279,6.272-13.318c5.617-2.976,7.617-5.991,1.946-10.623c-6.327-5.187-6.358,8.061-7.084,8.897
		c-6.281,7.217-22.809,10.974-9.023,22.567c-4.382,0.984-6.014,3.179-6.147,7.084c-0.266,7.225,0.266,6.733-6.827,8.046
		c-6.726,1.241-7.812-10.577-9.975-16.264c-4.929,5.21-15.006,14.271-19.169,2.258c-3.827-11.084,5.757-14.342,13.224-17.739
		c6.351-2.882,12.646-15.802,16.95-21.387c2.531-3.273,0.43-5.117,4.234-8.257c3.788-3.116,6.96-3.483,11.826-4.577
		c4.093-0.922,7.178-5.562,11.177-5.648c5.75-0.108,11.522,0.321,17.263,0.594c7.007,0.344,1.75,3.414,5.242,4.554
		c5.218,1.71,10.428,3.421,15.638,5.124c5.718,1.875,17.763,6.96,13.521,12.795c-4.562,6.264-16.325-1.461-20.715-3.812
		c-3.57,6.374,3.179,5.132,6.397,8.647c0.828,0.906-1.578,4.734-0.757,5.64c1.32,1.446,4.35,2.515,6.03,3.492
		c5.108,2.953,3.077-8.1,1.125-6.124c2.726-2.765,4.663-2.765,9.014,0c0.641-5.827,7.257-7.913,12.037-5.265
		c0.078-2.883,0.149-5.781,0.227-8.671c16.176,13.545,30.432,29.308,42.274,46.836c24.293,35.963,38.454,79.213,38.462,125.916
		C481.248,258.847,481.177,261.683,481.068,264.502z" style="fill: rgb(0, 106, 169);"></path>
	<path class="st0" d="M50.687,273.158c0,0,0,0-0.008,0C51.257,273.376,51.023,273.282,50.687,273.158z" style="fill: rgb(0, 106, 169);"></path>
	<path class="st0" d="M432.998,199.451c0.226,1.078-5.476-4.804-5.928-5.444c-1.914-2.696-3.812-5.39-5.726-8.093
		c5.89-0.257,7.695-4.014,7.523-9.389c-11.131,0-26.02,5.89-15.435,18.153c1.469,1.696,5.991,5.242,6.406,7.405
		c0.305,1.578-4.391,2.858-3.906,5.32c1.586,7.904,3.742,7.17,11.428,9.725c1.952-0.141,4.163-1.555,6.022-2.25
		c-1.304-2.819-4.178-6.725-4.514-9.787C428.764,204.247,433.756,203.106,432.998,199.451z" style="fill: rgb(0, 106, 169);"></path>
</g>
</svg>
