<svg width="1087" height="323" xmlns="http://www.w3.org/2000/svg" xmlns:xlink="http://www.w3.org/1999/xlink" overflow="hidden"><defs><clipPath id="clip0"><rect x="98" y="213" width="1087" height="323"/></clipPath><clipPath id="clip1"><path d="M220.231 283.32 191.517 290.318 169.713 296.74 212.081 347.784 193.88 351.509 262.548 431.875 233.137 343.136 248.299 339.135ZM98 230 341 230 341 473 98 473Z" fill-rule="evenodd" clip-rule="evenodd"/></clipPath><clipPath id="clip2"><rect x="98" y="230" width="243" height="243"/></clipPath><clipPath id="clip3"><rect x="98" y="230" width="243" height="243"/></clipPath></defs><g clip-path="url(#clip0)" transform="translate(-98 -213)"><g clip-path="url(#clip1)"><g clip-path="url(#clip2)"><g clip-path="url(#clip3)"><path d="M219.498 230C197.609 256.271 162.578 271.594 123.173 273.783 123.173 273.783 123.173 341.648 123.173 363.541 123.173 422.651 219.498 473 219.498 473 219.498 473 315.828 422.651 315.828 363.541 315.828 341.648 315.828 273.783 315.828 273.783 276.418 271.594 241.387 256.271 219.498 230Z"/></g></g></g><text font-family="HGSKyokashotai,HGSKyokashotai_MSFontService,sans-serif" font-weight="700" font-size="153" transform="translate(322.56 417)">安全仕事人</text><path d="M317 440 1098.71 440" stroke="#000000" stroke-width="8" stroke-miterlimit="8" fill="none" fill-rule="evenodd"/></g></svg>