<?xml version="1.0" encoding="UTF-8" standalone="no"?>
<svg
   width="1087"
   height="323"
   overflow="hidden"
   version="1.1"
   id="svg69"
   sodipodi:docname="logo.svg"
   inkscape:version="1.1 (c68e22c387, 2021-05-23)"
   xmlns:inkscape="http://www.inkscape.org/namespaces/inkscape"
   xmlns:sodipodi="http://sodipodi.sourceforge.net/DTD/sodipodi-0.dtd"
   xmlns="http://www.w3.org/2000/svg"
   xmlns:svg="http://www.w3.org/2000/svg">
  <sodipodi:namedview
     id="namedview71"
     pagecolor="#ffffff"
     bordercolor="#666666"
     borderopacity="1.0"
     inkscape:pageshadow="2"
     inkscape:pageopacity="0.0"
     inkscape:pagecheckerboard="0"
     showgrid="false"
     inkscape:zoom="1.1407544"
     inkscape:cx="551.82782"
     inkscape:cy="99.495565"
     inkscape:window-width="1920"
     inkscape:window-height="1017"
     inkscape:window-x="636"
     inkscape:window-y="32"
     inkscape:window-maximized="1"
     inkscape:current-layer="svg69" />
  <defs
     id="defs53">
    <clipPath
       id="clip0">
      <rect
         x="98"
         y="213"
         width="1087"
         height="323"
         id="rect41" />
    </clipPath>
    <clipPath
       id="clip1">
      <path
         d="M220.231 283.32 191.517 290.318 169.713 296.74 212.081 347.784 193.88 351.509 262.548 431.875 233.137 343.136 248.299 339.135ZM98 230 341 230 341 473 98 473Z"
         fill-rule="evenodd"
         clip-rule="evenodd"
         id="path44" />
    </clipPath>
    <clipPath
       id="clip2">
      <rect
         x="98"
         y="230"
         width="243"
         height="243"
         id="rect47" />
    </clipPath>
    <clipPath
       id="clip3">
      <rect
         x="98"
         y="230"
         width="243"
         height="243"
         id="rect50" />
    </clipPath>
  </defs>
  <g
     clip-path="url(#clip0)"
     transform="translate(-98 -213)"
     id="g67">
    <g
       clip-path="url(#clip1)"
       id="g61">
      <g
         clip-path="url(#clip2)"
         id="g59">
        <g
           clip-path="url(#clip3)"
           id="g57">
          <path
             d="M219.498 230C197.609 256.271 162.578 271.594 123.173 273.783 123.173 273.783 123.173 341.648 123.173 363.541 123.173 422.651 219.498 473 219.498 473 219.498 473 315.828 422.651 315.828 363.541 315.828 341.648 315.828 273.783 315.828 273.783 276.418 271.594 241.387 256.271 219.498 230Z"
             id="path55" />
        </g>
      </g>
    </g>
    <g
       aria-label="安全仕事人"
       transform="translate(322.56 417)"
       id="text63"
       style="font-weight:700;font-size:153px;font-family:HGSKyokashotai, HGSKyokashotai_MSFontService, sans-serif">
      <path
         d="m 67.535156,-82.476562 q 11.953125,4.183593 11.953125,10.757812 -1.195312,2.988281 -10.160156,20.320313 l 24.503906,-1.195313 v -4.183594 q -1.195312,-2.988281 -2.988281,-5.378906 0.597656,0 1.792969,-0.597656 7.171875,3.585937 8.964841,9.5625 l 14.94141,-0.597656 3.58594,-0.597657 q 1.79297,-0.597656 3.58593,-1.195312 3.58594,0.597656 8.36719,3.585937 3.58594,2.390625 4.18359,3.585938 0.59766,3.585937 -2.39062,3.585937 -4.18359,-0.597656 -12.55078,-1.792968 -8.96484,-1.195313 -19.72266,-1.195313 -2.988279,9.5625 -7.171873,16.734375 -4.78125,7.171875 -10.160156,12.550781 12.550781,3.585938 20.320309,7.171875 6.57422,4.7812503 10.75782,11.355469 1.19531,2.9882813 0,4.1835937 Q 113.55469,5.9765625 108.77344,2.390625 93.832031,-8.3671875 80.085937,-14.34375 57.972656,0.59765625 37.054687,2.390625 q -2.390625,0 -0.597656,-1.79296875 Q 57.375,-4.1835937 73.511719,-16.734375 q -4.78125,-1.792969 -10.160157,-3.585937 -5.378906,-1.792969 -10.757812,-1.792969 -3.585938,1.792969 -4.78125,3.585937 -1.195313,0 -2.988281,-3.585937 -1.195313,-2.390625 0,-3.585938 l 4.183593,-2.988281 10.757813,-17.332031 q -6.574219,0.597656 -14.941406,2.390625 -7.171875,1.195312 -11.355469,2.988281 -4.78125,1.195313 -8.964844,2.988281 -2.390625,-0.597656 -7.769531,-5.378906 -2.390625,-2.390625 -2.390625,-3.585937 -1.792969,-2.390625 1.195313,-1.195313 4.781249,1.792969 7.171874,1.792969 3.585938,0 7.769532,-0.597656 12.550781,-1.792969 31.078125,-4.183594 9.5625,-16.734375 8.964843,-24.503906 -0.597656,-2.390625 -4.183593,-5.976563 -1.195313,-2.390625 1.195312,-1.195312 z m -1.792969,-34.664068 q 2.390625,0 5.976563,0.59766 2.988281,0 8.964844,2.98828 2.988281,1.79297 1.195312,3.58594 -2.390625,2.39062 -2.390625,5.37891 v 7.769528 l 35.859379,-1.195313 5.97656,-1.792969 q 9.5625,5.378907 11.95312,8.367188 2.39063,2.988281 2.39063,4.183594 0,2.390625 -5.37891,2.390625 -2.39062,0 -4.78125,0.597656 -2.98828,0.597656 -7.17187,2.390625 -4.78125,2.390625 -8.36719,4.183594 -2.39062,1.195312 -1.19531,-1.195313 4.18359,-3.585937 7.17187,-6.574219 2.39063,-2.988281 3.58594,-4.78125 0,-1.792968 -1.19531,-2.390625 -1.79297,-0.597656 -5.97656,-0.597656 -40.64063,0 -73.511724,5.976563 l -5.976562,-0.597657 -1.195313,13.746094 q -0.597656,6.574219 -5.378906,6.574219 -3.585938,0 -3.585938,-4.78125 1.792969,-5.976563 3.585938,-10.757813 1.195312,-5.976562 1.195312,-7.769531 0,-4.183594 -1.792968,-5.378906 -1.195313,-2.390625 1.195312,-1.195313 6.574219,5.378907 10.757813,4.78125 l 34.066406,-3.585937 v -12.550784 q 0,-2.98828 -5.976563,-6.57422 -2.390625,-1.19531 0,-1.79297 z m 1.195313,70.523443 -13.746094,20.917968 q 9.5625,1.195313 24.503906,5.378907 11.953125,-12.550782 16.136719,-27.492188 z"
         style="font-weight:700;font-size:153px;font-family:HGSKyokashotai, HGSKyokashotai_MSFontService, sans-serif"
         id="path189" />
      <path
         d="m 242.64844,-62.753906 q 5.97656,1.195312 8.96484,2.390625 2.98828,2.988281 -1.19531,4.78125 -12.55078,1.195312 -25.69922,2.988281 5.97656,2.988281 5.97656,4.78125 -1.19531,2.988281 -2.39062,13.148438 5.3789,-0.597657 8.96484,-1.195313 4.18359,-0.597656 5.97656,-1.792969 4.1836,0.597657 7.17188,3.585938 4.78125,3.585937 -1.79297,4.183594 -13.14844,-0.597657 -20.32031,0 v 22.710937 l 27.49218,-0.5976562 q 4.1836,-0.5976563 7.17188,-1.7929688 11.95312,4.1835938 11.95312,6.5742187 0,2.39062505 -4.18359,2.39062505 -7.17187,-1.19531245 -14.34375,-1.79296875 h -10.75781 q -5.37891,0 -16.73438,0.5976563 -11.35547,0.5976562 -29.88281,4.1835937 -4.18359,1.1953125 -7.17187,1.7929687 -5.37891,-1.1953124 -11.95313,-9.5624999 -0.59766,-1.1953125 0.59766,-0.5976563 5.97656,2.9882812 10.16015,2.9882812 10.75782,-0.5976562 31.67578,-3.5859374 V -29.285156 q -8.36718,1.195312 -11.95312,1.792969 -2.39063,0.597656 -6.57422,1.792968 -4.78125,-2.390625 -7.76953,-6.574218 0,-1.195313 0.59766,-1.195313 3.58593,1.792969 7.76953,1.792969 5.3789,0 17.92968,-1.792969 0,-5.378906 0,-10.757812 0,-4.183594 -2.98828,-7.171875 -2.39062,0 -8.96484,1.792968 -2.98828,1.195313 -4.18359,1.195313 -5.37891,-2.390625 -10.75782,-7.769531 -1.19531,-2.988282 1.19532,-1.195313 2.98828,2.390625 7.76953,2.390625 3.58593,0 17.92968,-1.195312 7.76954,-1.195313 14.34375,-2.988282 2.98829,-1.195312 5.97657,-3.585937 z m -23.90625,-52.593754 q 7.17187,3.58594 10.75781,7.17188 1.19531,0.59765 1.79297,2.98828 -0.59766,1.79297 -2.39063,1.79297 41.83594,35.261718 68.13282,46.617186 1.79296,1.792969 -0.59766,1.792969 l -19.125,0.597656 q -3.58594,0 -6.57422,-3.585937 -16.13672,-15.539063 -44.22656,-43.628904 -26.29688,32.871091 -59.76563,50.800779 -2.39062,0.597656 -0.59765,-1.195313 21.51562,-16.734375 37.05468,-33.46875 15.53907,-16.734376 15.53907,-25.101566 0,-1.79297 -1.19532,-2.98828 -1.19531,-2.39062 1.19532,-1.79297 z"
         style="font-weight:700;font-size:153px;font-family:HGSKyokashotai, HGSKyokashotai_MSFontService, sans-serif"
         id="path191" />
      <path
         d="m 393.25781,-108.17578 q 4.78125,0 10.16016,2.98828 4.18359,2.39062 4.18359,3.58594 0,1.792966 -1.79297,4.781248 -1.19531,2.390625 -1.19531,5.976562 v 19.722656 q 11.95313,-1.195312 21.51563,-2.390625 1.79296,-0.597656 3.58593,-1.792968 7.76953,0.597656 11.95313,3.585937 2.98828,2.390625 1.79297,3.585938 -1.19532,1.195312 -7.17188,1.195312 -16.13672,0 -31.67578,1.195313 l -0.59766,47.8125 17.92969,-1.792969 4.1836,-1.195313 q 9.5625,1.792969 11.95312,3.585938 2.39063,1.195312 2.39063,3.585937 0,2.390625 -2.98829,2.390625 -8.96484,-1.195312 -20.91796,-1.195312 -16.13672,0 -26.29688,1.792968 -5.37891,1.195313 -10.75781,2.3906255 -9.5625,2.9882813 -10.75781,2.9882813 -5.37891,-2.9882813 -10.16016,-8.3671878 -1.19531,-2.390625 1.79297,-1.195312 5.3789,1.792968 10.75781,1.792968 2.98828,0 26.29688,-4.183593 v -47.8125 q -10.75782,1.195312 -16.73438,2.390625 -4.18359,0.597656 -11.95312,2.988281 -2.98829,1.792969 -4.1836,1.792969 -4.18359,-1.195313 -11.95312,-8.964844 -1.19532,-2.390625 1.19531,-1.195312 6.57422,2.390625 12.55078,2.390625 2.39063,0 31.07813,-4.78125 v -26.296875 q 0,-5.378908 -4.78125,-9.562498 -1.19532,-1.79297 0.59765,-1.79297 z m -44.82422,-3.58594 q 5.37891,1.79297 7.76953,5.97656 2.39063,4.1836 2.39063,5.976566 0,1.792969 -1.79297,2.390625 -4.18359,7.171875 -13.74609,24.503907 2.39062,2.988281 3.58593,5.378906 0.59766,1.195312 0.59766,2.988281 0,13.148438 -0.59766,54.984375 0,4.1835938 -0.59765,7.171875 -0.59766,3.5859375 -1.19531,5.3789063 -1.19532,1.7929687 -3.58594,0.5976562 -2.39063,-4.78125 -3.58594,-14.9414065 1.79297,-3.585937 2.39063,-8.964843 1.19531,-22.710938 1.19531,-43.628907 0,-1.195312 -1.19531,-3.585937 -7.76954,10.757812 -11.35547,15.539062 -2.98828,3.585938 -8.36719,8.964844 -2.98828,2.390625 -1.79297,-0.597656 8.96484,-13.746094 19.72266,-34.066406 10.16015,-20.917969 10.16015,-26.894528 0,-1.79297 -1.19531,-5.97657 -1.19531,-2.39062 1.19531,-1.19531 z"
         style="font-weight:700;font-size:153px;font-family:HGSKyokashotai, HGSKyokashotai_MSFontService, sans-serif"
         id="path193" />
      <path
         d="m 530.12109,-118.33594 q 7.76953,1.19531 11.35547,4.78125 2.39063,2.39063 0.59766,3.58594 -1.79297,1.79297 -1.79297,6.57422 16.13672,-0.59766 31.07812,-1.79297 4.1836,-1.19531 8.36719,-2.39063 4.1836,0.59766 9.5625,3.58594 3.58594,4.781253 -1.79297,4.781253 -5.3789,-1.195313 -14.9414,-1.195313 -11.95313,0.597656 -32.27344,1.792969 v 10.160156 q 10.16016,-1.195312 20.32031,-2.390625 l 2.98828,-1.195312 q 5.97657,4.78125 5.97657,6.574218 -1.19532,1.792969 -2.39063,2.988282 -2.98828,7.171875 -4.18359,9.5625 -1.19532,2.390625 -2.39063,2.988281 -1.19531,0.597656 -2.98828,-2.988281 -7.17187,0 -17.33203,1.195312 v 11.953125 q 10.75781,-1.195312 20.91797,-2.390625 l 4.18359,-1.792969 q 5.37891,3.585938 7.76953,5.378907 0.59766,0.597656 0.59766,2.390625 -2.39063,2.988281 -3.58594,8.964843 h 5.37891 q 4.78125,0 10.16015,-1.792968 2.98829,0 6.57422,1.195312 5.97657,1.792969 5.97657,3.585938 0,2.390625 -3.58594,2.988281 -4.78125,-0.597656 -7.76953,-0.597656 h -18.52735 l -4.78125,12.550781 q 2.98828,1.195312 2.39063,2.988281 0,2.988281 -7.17188,2.390625 -7.76953,0 -18.52734,0.597656 0,11.953125 0,22.1132815 -0.59766,5.3789062 -2.98828,8.9648437 Q 535.5,10.160156 533.70703,8.3671875 529.52344,0.59765625 517.57031,-4.78125 q -2.98828,-1.7929687 0,-2.390625 9.5625,2.390625 11.95313,2.390625 4.18359,0 4.18359,-7.769531 v -10.160156 q -5.37891,0.597656 -24.50391,2.988281 -6.57421,0 -11.35546,-6.574219 -1.19532,-2.390625 1.19531,-1.195312 2.98828,2.390625 8.96484,2.390625 13.14844,-0.597657 25.69922,-1.792969 v -11.953125 q -15.53906,1.792969 -40.04297,3.585937 -5.3789,0.597657 -7.17187,1.195313 -6.57422,-0.597656 -14.34375,-8.367188 -1.19532,-2.390625 1.19531,-1.195312 7.76953,3.585937 13.74609,3.585937 5.97657,0 46.61719,-4.183593 v -10.160157 q -10.75781,1.792969 -22.11328,2.988282 -4.18359,1.195312 -6.57422,1.195312 -3.58594,0 -9.5625,-7.769531 -1.19531,-2.988281 1.19531,-1.792969 4.78125,3.585938 10.16016,3.585938 2.98828,0 26.89453,-2.988282 v -11.953125 q -10.75781,1.195313 -18.52734,2.988282 -2.39063,2.390625 -4.1836,0 -1.19531,-2.390625 -4.18359,-14.34375 -0.59766,-2.390625 -4.78125,-4.183594 -1.79297,-1.195313 0.59766,-1.195313 2.98828,0 7.76953,1.792969 12.55078,-0.597656 23.30859,-1.792969 v -10.160156 q -11.35547,0 -23.90625,2.390625 -13.14844,2.390625 -17.33203,4.183594 -7.17188,-2.390625 -12.55078,-8.964844 -1.19531,-1.79297 0.59765,-1.19531 6.57422,3.585935 11.95313,2.390623 22.71094,-2.390623 41.23828,-3.585943 0,-7.17187 -0.59766,-8.96484 -0.59765,-1.79297 -7.17187,-4.78125 -1.19531,-0.59766 0,-1.19531 0.59766,-0.59766 4.18359,-0.59766 z m 3.58594,34.664065 q -11.95312,1.195313 -20.91797,1.792969 1.19531,4.78125 1.79297,8.964844 12.55078,-1.792969 19.125,-2.390625 z m 27.49219,42.433594 q -10.75781,0.597656 -20.91797,1.792969 v 11.355468 q 8.96484,-0.597656 17.92969,-1.195312 z m 1.19531,-15.539063 q -8.36719,0 -22.11328,1.792969 v 10.160156 q 11.35547,-0.597656 22.11328,-1.792968 l 1.79297,-7.769532 q -1.19531,-1.792968 -1.79297,-2.390625 z m -3.58594,-29.882812 q -5.97656,1.195312 -18.52734,2.390625 v 8.367187 q 8.36719,-1.195312 18.52734,-1.195312 1.19532,-3.585938 1.79297,-7.769531 0.59766,-2.390625 -1.79297,-1.792969 z"
         style="font-weight:700;font-size:153px;font-family:HGSKyokashotai, HGSKyokashotai_MSFontService, sans-serif"
         id="path195" />
      <path
         d="m 687.30469,-106.98047 q 4.18359,1.19531 7.17187,2.98828 8.36719,5.976565 4.78125,8.964846 -1.19531,1.195313 -1.79297,2.390625 -9.5625,18.527344 -18.52734,35.859375 l 44.22656,36.457032 q 13.14844,8.964843 18.52735,11.3554682 4.18359,1.7929688 11.35546,3.5859376 1.79297,0.5976562 0,1.7929687 -13.74609,1.7929688 -20.32031,2.390625 -4.78125,0 -5.97656,-1.1953125 l -10.16016,-10.160156 q -22.71093,-24.503906 -38.84765,-41.835938 -24.50391,38.25 -51.39844,49.605469 -2.39063,0.5976563 -1.19531,-1.1953125 28.08984,-19.1249995 46.01953,-52.5937495 17.92969,-33.46875 17.92969,-40.640625 0,-2.390623 -2.98829,-6.574223 -1.19531,-1.79297 1.19532,-1.19531 z"
         style="font-weight:700;font-size:153px;font-family:HGSKyokashotai, HGSKyokashotai_MSFontService, sans-serif"
         id="path197" />
    </g>
    <path
       d="M317 440 1098.71 440"
       stroke="#000000"
       stroke-width="8"
       stroke-miterlimit="8"
       fill="none"
       fill-rule="evenodd"
       id="path65" />
  </g>
</svg>
