<!--?xml version="1.0" encoding="utf-8"?-->
<!-- Generator: Adobe Illustrator 18.1.1, SVG Export Plug-In . SVG Version: 6.00 Build 0)  -->

<svg version="1.1" id="_x32_" xmlns="http://www.w3.org/2000/svg" xmlns:xlink="http://www.w3.org/1999/xlink" x="0px" y="0px" viewBox="0 0 512 512" style="width: 256px; height: 256px; opacity: 1;" xml:space="preserve">
<style type="text/css">
	.st0{fill:#4B4B4B;}
</style>
<g>
	<path class="st0" d="M256.617,249.025c4.908,16.405,30.483,18.805,45.782,4.457c-22.823,1.133-25.298-15.805-45.54-16.088v-0.027
		l-0.242,0.014l-0.243-0.014v0.027c-20.241,0.283-22.716,17.221-45.54,16.088C226.134,267.83,251.708,265.43,256.617,249.025z" style="fill: rgb(0, 0, 0);"></path>
	<polygon class="st0" points="255.694,387.545 243.058,387.545 236.146,442.194 255.694,480.168 275.24,442.194 268.329,387.545 	
		" style="fill: rgb(0, 0, 0);"></polygon>
	<path class="st0" d="M438.398,404.341c-12.319-18.454-31.029-28.656-48.614-35.278c-8.82-3.324-17.436-5.764-25.028-7.842
		c-7.579-2.063-14.174-3.803-18.603-5.468c-7.747-2.886-15.933-6.608-21.644-10.627c-2.852-1.982-5.05-4.032-6.324-5.784
		c-1.288-1.781-1.638-3.021-1.652-4.093c0-7.45,0-16.769,0-29.027c9.912-11.031,24.152-28.124,30.004-55.222
		c2.043-0.924,4.066-1.961,6.014-3.317c4.848-3.344,8.961-8.213,12.447-14.813c3.507-6.635,6.614-15.124,9.932-26.722
		c1.16-4.086,1.76-7.727,1.767-11.145c0.02-4.478-1.133-8.738-3.634-12.049c-0.486-0.655-1.038-1.214-1.592-1.76
		c8.617-18.778,12.663-37.577,12.663-55.101c0-18.205-4.315-35.054-12.305-49.026c-7.984-13.957-19.722-25.042-34.266-31.36
		c-0.755-0.317-2.482-1.328-4.598-2.824c-3.756-2.617-8.866-6.648-14.948-11.153c-9.15-6.756-20.566-14.631-33.922-20.875
		C270.749,4.625,255.384,0,238.493,0c-2.097,0-4.201,0.068-6.324,0.216c-13.088,0.903-24.011,3.182-33.444,6.796
		c-14.18,5.394-24.759,13.823-34.017,23.829c-9.292,10.026-17.49,21.603-27.705,34.347c-10.303,12.906-13.701,28.858-13.694,44.508
		c0.013,16.62,3.769,33.274,8.037,47.353c3.014,9.912,6.312,18.529,8.806,24.799c-0.647,0.702-1.382,1.282-1.915,2.117
		c-2.03,3.169-2.933,6.999-2.926,11.045c0.007,3.412,0.607,7.066,1.767,11.138c4.437,15.454,8.442,25.433,13.626,32.756
		c2.589,3.634,5.543,6.554,8.752,8.779c1.948,1.356,3.972,2.393,6.014,3.317c5.853,27.099,20.094,44.191,30.005,55.222
		c0,12.258,0,21.576,0,29.027c0,0.91-0.364,2.238-1.787,4.126c-2.083,2.805-6.405,6.196-11.537,9.083
		c-5.118,2.912-11.004,5.434-16.155,7.241c-6.048,2.144-15.791,4.383-26.708,7.511c-16.405,4.74-35.796,11.57-51.574,25.102
		c-7.875,6.763-14.793,15.259-19.655,25.818c-4.868,10.559-7.66,23.093-7.653,37.772c0,3.398,0.148,6.918,0.458,10.559
		c0.222,2.562,1.194,4.632,2.333,6.338c2.171,3.195,5.05,5.562,8.657,7.997c6.318,4.18,15.07,8.266,26.276,12.278
		C131.67,501.036,187.195,511.98,256.004,512c55.903-0.007,103.088-7.262,136.767-16.371c16.85-4.564,30.302-9.567,40.024-14.564
		c4.868-2.515,8.806-5.003,11.928-7.727c1.564-1.376,2.933-2.818,4.086-4.538c1.133-1.706,2.11-3.776,2.333-6.338
		c0.303-3.641,0.452-7.147,0.452-10.539C451.62,432.363,446.597,416.599,438.398,404.341z M172.733,123.95
		c0.68-2.69,1.57-4.599,2.562-5.994c1.503-2.063,3.196-3.25,6.142-4.221c2.933-0.938,7.08-1.382,12.359-1.375
		c12.845-0.014,32.008,2.508,57.602,2.515c27.537-0.013,49.328-3.52,64.17-3.486c4.801-0.006,8.826,0.358,11.981,1.167
		c4.761,1.288,7.363,3.068,9.54,6.695c2.158,3.654,3.635,9.884,3.615,19.519c0.013,6.184-1.504,18.219-3.048,28.366
		c-0.044,0.29-0.088,0.567-0.132,0.85c-0.28-0.472-0.55-0.958-0.812-1.356c-2.098-3.23-4.599-3.608-8.199-3.884
		c-6.877-0.512-13.796-0.553-20.693-0.58c-11.402-0.02-23.073-0.263-34.4,1.335c-3.136,0.452-5.968,1.132-8.678,2.758
		c-2.879,1.739-6.668,1.477-9.891,1.409c-2.838-0.068-5.252-0.364-7.687-1.834c-3.506-2.091-7.956-2.408-11.914-2.778
		c-13.08-1.193-26.363-1.052-39.478-0.788c-3.385,0.061-6.763,0.168-10.134,0.378c-2.663,0.168-5.98-0.088-8.05,1.854
		c-1.268,1.18-2.084,2.704-3.001,4.147c-0.462-3.014-0.931-6.163-1.368-9.359c-1.079-7.916-1.922-15.912-1.915-20.518
		C171.296,132.418,171.809,127.516,172.733,123.95z M331.838,186.184c-0.412,6.56-2.731,13.6-7.148,18.556
		c-4.004,4.808-9.817,7.255-15.912,8.125c-13.438,1.894-28.339-4.369-33.167-17.78c-0.883-2.448-1.267-5.03-1.476-7.599
		c-0.202-2.461-0.714-6.736,1.207-8.65c3.196-4.396,10.68-4.949,15.622-5.455c7.242-0.735,14.624-0.869,21.9-0.606
		c5.205,0.182,13.485,0.135,17.234,4.524C332.343,179.644,332.04,183.19,331.838,186.184z M238.567,183.73
		c0,6.81-1.328,13.134-5.65,18.596c-4.059,5.124-10.114,8.658-16.459,10.06c-13.007,2.899-26.802-1.497-32.621-14.079
		c-1.484-3.209-2.428-6.675-2.873-10.168c-0.33-2.69-0.944-6.547,0.317-9.062c2.623-5.286,10.512-5.879,15.644-6.169
		c6.897-0.384,13.815-0.222,20.699,0.155c5.961,0.404,16.769,0.499,20.12,6.54C238.311,180.992,238.52,182.246,238.567,183.73z
		 M179.468,244.17l-0.768-4.349l-4.153-1.484c-2.644-0.944-4.66-1.908-6.419-3.128c-2.596-1.834-4.949-4.336-7.7-9.467
		c-2.717-5.098-5.596-12.71-8.745-23.761c-0.876-3.075-1.186-5.401-1.18-6.972c0.007-1.902,0.385-2.61,0.54-2.859
		c0.175-0.243,0.242-0.35,0.89-0.648l-2.36-5.812h0.006l1.591,3.898v-0.007c1.046-0.439,2.643-0.715,4.498-0.708
		c3.108-0.014,6.81,0.735,9.615,1.524c1.409,0.391,2.609,0.782,3.432,1.078l0.938,0.338l0.229,0.094l0.04,0.014l0.246,0.101
		c0.013,0.128,0.017,0.277,0.037,0.405c1.369,9.466,7.309,18.414,15.218,23.66c11.463,7.599,27.914,8.597,40.78,4.234
		c8.894-3,15.447-9.46,19.358-17.902c1.564-3.378,2.731-6.932,3.816-10.491c1.092-3.547,2.448-12.002,7.458-11.301
		c4.922,0.721,6.055,10.249,7.343,14.24c1.2,3.722,2.609,7.39,4.551,10.802c4.962,8.732,13.229,14.16,23.04,16.074
		c19.634,3.803,41.426-3.014,48.884-22.884c0.668-1.78,1.22-3.628,1.564-5.516c0.094-0.478,0.139-1.004,0.182-1.544
		c1.376-0.54,8.428-2.994,13.95-2.926c1.484-0.007,2.792,0.162,3.769,0.452l1.571-5.293l-2.13,7.289
		c0.991,0.31,1.186,0.546,1.355,0.748c0.141,0.209,0.573,0.809,0.594,2.933c0.007,1.571-0.304,3.904-1.18,6.978
		c-4.188,14.752-7.943,23.329-11.388,28.09c-1.726,2.4-3.304,3.91-5.058,5.138c-1.759,1.22-3.775,2.184-6.418,3.128l-4.154,1.484
		l-0.768,4.349c-4.862,27.22-18.886,42.526-29.243,54.062l-1.948,2.164v2.92c0,13.809,0,23.876,0,31.933
		c0,0.162,0.04,0.317,0.047,0.479l-40.064,25.918h-5.637h-6.756l-38.433-24.866c0.047-0.513,0.154-1.004,0.154-1.531
		c0-8.057,0-18.131,0-31.933v-2.92l-1.948-2.164C198.354,286.696,184.329,271.39,179.468,244.17z M311.529,354.189l-23.37,35.055
		l-19.095-20.369l0.243-4.167l33.625-21.752c0.796,1.948,1.814,3.776,3.014,5.394C307.564,350.521,309.479,352.409,311.529,354.189z
		 M242.363,369.488l-18.529,19.756l-23.403-35.109c1.948-1.699,3.782-3.519,5.354-5.576c1.098-1.443,2.036-3.061,2.838-4.767
		l33.498,21.671L242.363,369.488z M257.197,496.795c-0.404,0-0.789,0.014-1.194,0.014c-0.62,0-1.207-0.027-1.827-0.027
		l-68.236-133.18c3.088-1.584,6.136-3.31,8.995-5.245l27.982,41.966l20.006-21.334l0.128,2.218h12.643h12.642l0.169-2.825
		l20.571,21.94l27.948-41.926c1.517,1.005,3.082,1.969,4.686,2.886c1.261,0.715,2.616,1.302,3.918,1.968L257.197,496.795z" style="fill: rgb(0, 0, 0);"></path>
</g>
</svg>
