<svg width="1280" height="720" xmlns="http://www.w3.org/2000/svg" xmlns:xlink="http://www.w3.org/1999/xlink" overflow="hidden"><defs><clipPath id="clip0"><rect x="0" y="0" width="1280" height="720"/></clipPath><linearGradient x1="640" y1="261" x2="640" y2="720" gradientUnits="userSpaceOnUse" spreadMethod="reflect" id="fill1"><stop offset="0" stop-color="#A9D18E"/><stop offset="0.77" stop-color="#70AD47"/><stop offset="1" stop-color="#70AD47"/></linearGradient></defs><g clip-path="url(#clip0)"><rect x="0" y="0" width="1280" height="720" fill="#FFFFFF"/><rect x="0" y="0" width="1280" height="720" fill="#3399FF"/><path d="M534.521 303.245C527.365 288.46 564.212 274.844 616.822 272.833 638.141 272.018 659.815 273.237 678.379 276.293 698.048 265.873 744.013 261.913 781.043 267.448 787.518 268.416 793.461 269.642 798.686 271.09 814.006 262.452 851.32 258.943 882.031 263.252 890.531 264.444 897.945 266.169 903.705 268.293 928.397 260.125 972.029 259.116 1001.16 266.04 1013.4 268.95 1021.66 272.963 1024.5 277.392 1064.96 280.495 1088.82 292.246 1077.81 303.64 1076.88 304.598 1075.72 305.536 1074.33 306.449 1106.78 318.321 1098.83 335.337 1056.59 344.456 1043.44 347.294 1027.91 349.132 1011.49 349.791 1011.13 362.564 973.961 372.835 928.479 372.733 913.283 372.698 898.417 371.484 885.527 369.224 870.143 383.544 816.483 391.637 765.674 387.302 744.38 385.485 725.982 381.642 713.618 376.429 661.596 385.249 594.073 380.505 562.801 365.833 562.407 365.648 562.02 365.462 561.64 365.275 527.593 366.395 496.754 359.567 492.758 350.024 490.628 344.938 496.602 339.846 509.089 336.107 479.61 331.229 469.707 320.523 486.971 312.194 496.93 307.388 514.398 304.212 534.003 303.641Z" fill="#FFFFFF" fill-rule="evenodd"/><path d="M1010.01 382.921C1006.92 369.649 1022.86 357.427 1045.61 355.622 1054.83 354.891 1064.21 355.984 1072.24 358.728 1080.74 349.374 1100.62 345.819 1116.64 350.788 1119.44 351.657 1122.01 352.758 1124.27 354.057 1130.9 346.304 1147.04 343.154 1160.32 347.021 1164 348.092 1167.2 349.64 1169.69 351.547 1180.37 344.215 1199.24 343.309 1211.84 349.524 1217.14 352.136 1220.71 355.739 1221.94 359.714 1239.44 362.499 1249.76 373.048 1245 383.275 1244.6 384.135 1244.09 384.978 1243.49 385.797 1257.53 396.453 1254.09 411.728 1235.82 419.913 1230.13 422.461 1223.41 424.11 1216.31 424.702 1216.16 436.168 1200.08 445.387 1180.41 445.295 1173.84 445.265 1167.41 444.175 1161.83 442.146 1155.18 455 1131.97 462.265 1109.99 458.373 1100.78 456.742 1092.82 453.293 1087.48 448.614 1064.98 456.53 1035.77 452.272 1022.25 439.102 1022.08 438.936 1021.91 438.769 1021.74 438.601 1007.02 439.607 993.679 433.478 991.951 424.911 991.029 420.345 993.613 415.775 999.014 412.419 986.264 408.04 981.981 398.43 989.447 390.953 993.755 386.64 1001.31 383.789 1009.79 383.276Z" fill="#FFFFFF" fill-rule="evenodd"/><path d="M279.732 261.014C335.772 261.291 379.717 265.729 461.963 276.219 596.996 294.94 734.61 325.28 810.297 338.191 930.709 360.785 1017.58 385.315 1171.53 405.972 1205.08 410.975 1230.88 414.526 1251.84 417.168L1280 420.517 1280 720 0 720 0 295.378 12.3531 290.26C47.6165 278.801 91.2659 270.732 154.912 264.6 208.13 262.179 246.108 260.847 279.732 261.014Z" fill="url(#fill1)" fill-rule="evenodd"/><path d="M1280 422 1280 720 0 720 0 497.097 48.5762 485.758C94.2081 475.5 145.283 465.545 218.128 456.798 444.546 440.032 548.401 442.612 713.537 435.518L1168.95 429.715C1205.4 427.942 1232.71 426.168 1254.3 424.395Z" fill="#70AD47" fill-rule="evenodd"/><path d="M924.979 162.9C921.244 146.136 940.477 130.698 967.937 128.417 979.064 127.493 990.377 128.875 1000.07 132.34 1010.33 120.525 1034.32 116.035 1053.65 122.311 1057.03 123.408 1060.13 124.799 1062.86 126.44 1070.86 116.647 1090.33 112.668 1106.36 117.553 1110.8 118.905 1114.67 120.861 1117.68 123.27 1130.56 114.008 1153.34 112.864 1168.54 120.714 1174.93 124.014 1179.24 128.565 1180.72 133.587 1201.84 137.104 1214.3 150.429 1208.55 163.348 1208.07 164.434 1207.46 165.498 1206.73 166.532 1223.67 179.994 1219.52 199.288 1197.47 209.627 1190.61 212.845 1182.5 214.929 1173.94 215.677 1173.74 230.159 1154.35 241.805 1130.61 241.689 1122.67 241.65 1114.92 240.273 1108.19 237.711 1100.16 253.947 1072.15 263.124 1045.63 258.208 1034.52 256.148 1024.91 251.791 1018.46 245.881 991.306 255.88 956.062 250.501 939.74 233.866 939.535 233.657 939.332 233.446 939.134 233.233 921.363 234.503 905.267 226.761 903.181 215.941 902.069 210.173 905.188 204.4 911.705 200.161 896.318 194.63 891.149 182.491 900.16 173.046 905.359 167.598 914.476 163.996 924.709 163.348Z" fill="#FFFFFF" fill-rule="evenodd"/></g></svg>