<?xml version="1.0" encoding="UTF-8" standalone="no"?>
<!-- Created with Inkscape (http://www.inkscape.org/) -->

<svg
   width="800"
   height="400"
   viewBox="0 0 211.66666 105.83334"
   version="1.1"
   id="svg5"
   inkscape:version="1.1 (c68e22c387, 2021-05-23)"
   sodipodi:docname="logo.svg"
   xmlns:inkscape="http://www.inkscape.org/namespaces/inkscape"
   xmlns:sodipodi="http://sodipodi.sourceforge.net/DTD/sodipodi-0.dtd"
   xmlns="http://www.w3.org/2000/svg"
   xmlns:svg="http://www.w3.org/2000/svg">
  <sodipodi:namedview
     id="namedview7"
     pagecolor="#ffffff"
     bordercolor="#666666"
     borderopacity="1.0"
     inkscape:pageshadow="2"
     inkscape:pageopacity="0.0"
     inkscape:pagecheckerboard="0"
     inkscape:document-units="mm"
     showgrid="false"
     inkscape:zoom="0.67081229"
     inkscape:cx="135.65643"
     inkscape:cy="418.14976"
     inkscape:window-width="1920"
     inkscape:window-height="1147"
     inkscape:window-x="-8"
     inkscape:window-y="-8"
     inkscape:window-maximized="1"
     inkscape:current-layer="text29"
     units="px"
     width="800px" />
  <defs
     id="defs2">
    <clipPath
       id="clip0">
      <rect
         x="245"
         y="93"
         width="720"
         height="281"
         id="rect9" />
    </clipPath>
    <clipPath
       id="clip1">
      <path
         d="m 605.211,108.36 -8.272,2.016 -6.281,1.849 12.205,14.704 -5.243,1.074 19.781,23.15 -8.473,-25.562 4.368,-1.153 z M 570,93 h 70 v 70 h -70 z"
         fill-rule="evenodd"
         clip-rule="evenodd"
         id="path12" />
    </clipPath>
    <clipPath
       id="clip2">
      <rect
         x="570"
         y="93"
         width="70"
         height="70"
         id="rect15" />
    </clipPath>
    <clipPath
       id="clip3">
      <rect
         x="570"
         y="93"
         width="70"
         height="70"
         id="rect18" />
    </clipPath>
  </defs>
  <g
     inkscape:label="レイヤー 1"
     inkscape:groupmode="layer"
     id="layer1">
    <g
       clip-path="url(#clip0)"
       transform="matrix(0.33715704,0,0,0.33715704,-98.106249,-30.8877)"
       id="g45"
       inkscape:transform-center-y="26.638338"
       inkscape:transform-center-x="-2.8264743e-06">
      <g
         aria-label="安全仕事人ー体験型情報セキュリティ学習システムー"
         id="text29"
         style="font-weight:700;font-size:80px;font-family:HGSKyokashotai, HGSKyokashotai_MSFontService, sans-serif">
        <path
           d="m 439.3085,215.0004 q 6.25,2.1875 6.25,5.625 -0.625,1.5625 -5.3125,10.625 l 12.8125,-0.625 v -2.1875 q -0.625,-1.5625 -1.5625,-2.8125 0.3125,0 0.9375,-0.3125 3.75,1.875 4.6875,5 l 7.8125,-0.3125 1.875,-0.3125 q 0.9375,-0.3125 1.875,-0.625 1.875,0.3125 4.375,1.875 1.875,1.25 2.1875,1.875 0.3125,1.875 -1.25,1.875 -2.1875,-0.3125 -6.5625,-0.9375 -4.6875,-0.625 -10.3125,-0.625 -1.5625,5 -3.75,8.75 -2.5,3.75 -5.3125,6.5625 6.5625,1.875 10.625,3.75 3.4375,2.5 5.625,5.9375 0.625,1.5625 0,2.1875 -0.9375,0.9375 -3.4375,-0.9375 -7.8125,-5.625 -15,-8.75 -11.5625,7.8125 -22.5,8.75 -1.25,0 -0.3125,-0.9375 10.9375,-2.5 19.375,-9.0625 -2.5,-0.9375 -5.3125,-1.875 -2.8125,-0.9375 -5.625,-0.9375 -1.875,0.9375 -2.5,1.875 -0.625,0 -1.5625,-1.875 -0.625,-1.25 0,-1.875 l 2.1875,-1.5625 5.625,-9.0625 q -3.4375,0.3125 -7.8125,1.25 -3.75,0.625 -5.9375,1.5625 -2.5,0.625 -4.6875,1.5625 -1.25,-0.3125 -4.0625,-2.8125 -1.25,-1.25 -1.25,-1.875 -0.9375,-1.25 0.625,-0.625 2.5,0.9375 3.75,0.9375 1.875,0 4.0625,-0.3125 6.5625,-0.9375 16.25,-2.1875 5,-8.75 4.6875,-12.8125 -0.3125,-1.25 -2.1875,-3.125 -0.625,-1.25 0.625,-0.625 z m -0.9375,-18.125 q 1.25,0 3.125,0.3125 1.5625,0 4.6875,1.5625 1.5625,0.9375 0.625,1.875 -1.25,1.25 -1.25,2.8125 v 4.0625 l 18.75,-0.625 3.125,-0.9375 q 5,2.8125 6.25,4.375 1.25,1.5625 1.25,2.1875 0,1.25 -2.8125,1.25 -1.25,0 -2.5,0.3125 -1.5625,0.3125 -3.75,1.25 -2.5,1.25 -4.375,2.1875 -1.25,0.625 -0.625,-0.625 2.1875,-1.875 3.75,-3.4375 1.25,-1.5625 1.875,-2.5 0,-0.9375 -0.625,-1.25 -0.9375,-0.3125 -3.125,-0.3125 -21.25,0 -38.4375,3.125 l -3.125,-0.3125 -0.625,7.1875 q -0.3125,3.4375 -2.8125,3.4375 -1.875,0 -1.875,-2.5 0.9375,-3.125 1.875,-5.625 0.625,-3.125 0.625,-4.0625 0,-2.1875 -0.9375,-2.8125 -0.625,-1.25 0.625,-0.625 3.4375,2.8125 5.625,2.5 l 17.8125,-1.875 v -6.5625 q 0,-1.5625 -3.125,-3.4375 -1.25,-0.625 0,-0.9375 z m 0.625,36.875 -7.1875,10.9375 q 5,0.625 12.8125,2.8125 6.25,-6.5625 8.4375,-14.375 z"
           style="font-weight:700;font-size:80px;font-family:HGSKyokashotai, HGSKyokashotai_MSFontService, sans-serif"
           id="path29" />
        <path
           d="m 530.871,225.3129 q 3.125,0.625 4.6875,1.25 1.5625,1.5625 -0.625,2.5 -6.5625,0.625 -13.4375,1.5625 3.125,1.5625 3.125,2.5 -0.625,1.5625 -1.25,6.875 2.8125,-0.3125 4.6875,-0.625 2.1875,-0.3125 3.125,-0.9375 2.1875,0.3125 3.75,1.875 2.5,1.875 -0.9375,2.1875 -6.875,-0.3125 -10.625,0 v 11.875 l 14.375,-0.3125 q 2.1875,-0.3125 3.75,-0.9375 6.25,2.1875 6.25,3.4375 0,1.25 -2.1875,1.25 -3.75,-0.625 -7.5,-0.9375 h -5.625 q -2.8125,0 -8.75,0.3125 -5.9375,0.3125 -15.625,2.1875 -2.1875,0.625 -3.75,0.9375 -2.8125,-0.625 -6.25,-5 -0.3125,-0.625 0.3125,-0.3125 3.125,1.5625 5.3125,1.5625 5.625,-0.3125 16.5625,-1.875 v -11.875 q -4.375,0.625 -6.25,0.9375 -1.25,0.3125 -3.4375,0.9375 -2.5,-1.25 -4.0625,-3.4375 0,-0.625 0.3125,-0.625 1.875,0.9375 4.0625,0.9375 2.8125,0 9.375,-0.9375 0,-2.8125 0,-5.625 0,-2.1875 -1.5625,-3.75 -1.25,0 -4.6875,0.9375 -1.5625,0.625 -2.1875,0.625 -2.8125,-1.25 -5.625,-4.0625 -0.625,-1.5625 0.625,-0.625 1.5625,1.25 4.0625,1.25 1.875,0 9.375,-0.625 4.0625,-0.625 7.5,-1.5625 1.5625,-0.625 3.125,-1.875 z m -12.5,-27.5 q 3.75,1.875 5.625,3.75 0.625,0.3125 0.9375,1.5625 -0.3125,0.9375 -1.25,0.9375 21.875,18.4375 35.625,24.375 0.9375,0.9375 -0.3125,0.9375 l -10,0.3125 q -1.875,0 -3.4375,-1.875 -8.4375,-8.125 -23.125,-22.8125 -13.75,17.1875 -31.25,26.5625 -1.25,0.3125 -0.3125,-0.625 11.25,-8.75 19.375,-17.5 8.125,-8.75 8.125,-13.125 0,-0.9375 -0.625,-1.5625 -0.625,-1.25 0.625,-0.9375 z"
           style="font-weight:700;font-size:80px;font-family:HGSKyokashotai, HGSKyokashotai_MSFontService, sans-serif"
           id="path31" />
        <path
           d="m 609.621,201.5629 q 2.5,0 5.3125,1.5625 2.1875,1.25 2.1875,1.875 0,0.9375 -0.9375,2.5 -0.625,1.25 -0.625,3.125 v 10.3125 q 6.25,-0.625 11.25,-1.25 0.9375,-0.3125 1.875,-0.9375 4.0625,0.3125 6.25,1.875 1.5625,1.25 0.9375,1.875 -0.625,0.625 -3.75,0.625 -8.4375,0 -16.5625,0.625 l -0.3125,25 9.375,-0.9375 2.1875,-0.625 q 5,0.9375 6.25,1.875 1.25,0.625 1.25,1.875 0,1.25 -1.5625,1.25 -4.6875,-0.625 -10.9375,-0.625 -8.4375,0 -13.75,0.9375 -2.8125,0.625 -5.625,1.25 -5,1.5625 -5.625,1.5625 -2.8125,-1.5625 -5.3125,-4.375 -0.625,-1.25 0.9375,-0.625 2.8125,0.9375 5.625,0.9375 1.5625,0 13.75,-2.1875 v -25 q -5.625,0.625 -8.75,1.25 -2.1875,0.3125 -6.25,1.5625 -1.5625,0.9375 -2.1875,0.9375 -2.1875,-0.625 -6.25,-4.6875 -0.625,-1.25 0.625,-0.625 3.4375,1.25 6.5625,1.25 1.25,0 16.25,-2.5 v -13.75 q 0,-2.8125 -2.5,-5 -0.625,-0.9375 0.3125,-0.9375 z m -23.4375,-1.875 q 2.8125,0.9375 4.0625,3.125 1.25,2.1875 1.25,3.125 0,0.9375 -0.9375,1.25 -2.1875,3.75 -7.1875,12.8125 1.25,1.5625 1.875,2.8125 0.3125,0.625 0.3125,1.5625 0,6.875 -0.3125,28.75 0,2.1875 -0.3125,3.75 -0.3125,1.875 -0.625,2.8125 -0.625,0.9375 -1.875,0.3125 -1.25,-2.5 -1.875,-7.8125 0.9375,-1.875 1.25,-4.6875 0.625,-11.875 0.625,-22.8125 0,-0.625 -0.625,-1.875 -4.0625,5.625 -5.9375,8.125 -1.5625,1.875 -4.375,4.6875 -1.5625,1.25 -0.9375,-0.3125 4.6875,-7.1875 10.3125,-17.8125 5.3125,-10.9375 5.3125,-14.0625 0,-0.9375 -0.625,-3.125 -0.625,-1.25 0.625,-0.625 z"
           style="font-weight:700;font-size:80px;font-family:HGSKyokashotai, HGSKyokashotai_MSFontService, sans-serif"
           id="path33" />
        <path
           d="m 681.1835,196.2504 q 4.0625,0.625 5.9375,2.5 1.25,1.25 0.3125,1.875 -0.9375,0.9375 -0.9375,3.4375 8.4375,-0.3125 16.25,-0.9375 2.1875,-0.625 4.375,-1.25 2.1875,0.3125 5,1.875 1.875,2.5 -0.9375,2.5 -2.8125,-0.625 -7.8125,-0.625 -6.25,0.3125 -16.875,0.9375 v 5.3125 q 5.3125,-0.625 10.625,-1.25 l 1.5625,-0.625 q 3.125,2.5 3.125,3.4375 -0.625,0.9375 -1.25,1.5625 -1.5625,3.75 -2.1875,5 -0.625,1.25 -1.25,1.5625 -0.625,0.3125 -1.5625,-1.5625 -3.75,0 -9.0625,0.625 v 6.25 q 5.625,-0.625 10.9375,-1.25 l 2.1875,-0.9375 q 2.8125,1.875 4.0625,2.8125 0.3125,0.3125 0.3125,1.25 -1.25,1.5625 -1.875,4.6875 h 2.8125 q 2.5,0 5.3125,-0.9375 1.5625,0 3.4375,0.625 3.125,0.9375 3.125,1.875 0,1.25 -1.875,1.5625 -2.5,-0.3125 -4.0625,-0.3125 h -9.6875 l -2.5,6.5625 q 1.5625,0.625 1.25,1.5625 0,1.5625 -3.75,1.25 -4.0625,0 -9.6875,0.3125 0,6.25 0,11.5625 -0.3125,2.8125 -1.5625,4.6875 -0.9375,1.25 -1.875,0.3125 -2.1875,-4.0625 -8.4375,-6.875 -1.5625,-0.9375 0,-1.25 5,1.25 6.25,1.25 2.1875,0 2.1875,-4.0625 v -5.3125 q -2.8125,0.3125 -12.8125,1.5625 -3.4375,0 -5.9375,-3.4375 -0.625,-1.25 0.625,-0.625 1.5625,1.25 4.6875,1.25 6.875,-0.3125 13.4375,-0.9375 v -6.25 q -8.125,0.9375 -20.9375,1.875 -2.8125,0.3125 -3.75,0.625 -3.4375,-0.3125 -7.5,-4.375 -0.625,-1.25 0.625,-0.625 4.0625,1.875 7.1875,1.875 3.125,0 24.375,-2.1875 v -5.3125 q -5.625,0.9375 -11.5625,1.5625 -2.1875,0.625 -3.4375,0.625 -1.875,0 -5,-4.0625 -0.625,-1.5625 0.625,-0.9375 2.5,1.875 5.3125,1.875 1.5625,0 14.0625,-1.5625 v -6.25 q -5.625,0.625 -9.6875,1.5625 -1.25,1.25 -2.1875,0 -0.625,-1.25 -2.1875,-7.5 -0.3125,-1.25 -2.5,-2.1875 -0.9375,-0.625 0.3125,-0.625 1.5625,0 4.0625,0.9375 6.5625,-0.3125 12.1875,-0.9375 v -5.3125 q -5.9375,0 -12.5,1.25 -6.875,1.25 -9.0625,2.1875 -3.75,-1.25 -6.5625,-4.6875 -0.625,-0.9375 0.3125,-0.625 3.4375,1.875 6.25,1.25 11.875,-1.25 21.5625,-1.875 0,-3.75 -0.3125,-4.6875 -0.3125,-0.9375 -3.75,-2.5 -0.625,-0.3125 0,-0.625 0.3125,-0.3125 2.1875,-0.3125 z m 1.875,18.125 q -6.25,0.625 -10.9375,0.9375 0.625,2.5 0.9375,4.6875 6.5625,-0.9375 10,-1.25 z m 14.375,22.1875 q -5.625,0.3125 -10.9375,0.9375 v 5.9375 q 4.6875,-0.3125 9.375,-0.625 z m 0.625,-8.125 q -4.375,0 -11.5625,0.9375 v 5.3125 q 5.9375,-0.3125 11.5625,-0.9375 l 0.9375,-4.0625 q -0.625,-0.9375 -0.9375,-1.25 z m -1.875,-15.625 q -3.125,0.625 -9.6875,1.25 v 4.375 q 4.375,-0.625 9.6875,-0.625 0.625,-1.875 0.9375,-4.0625 0.3125,-1.25 -0.9375,-0.9375 z"
           style="font-weight:700;font-size:80px;font-family:HGSKyokashotai, HGSKyokashotai_MSFontService, sans-serif"
           id="path35" />
        <path
           d="m 763.371,202.1879 q 2.1875,0.625 3.75,1.5625 4.375,3.125 2.5,4.6875 -0.625,0.625 -0.9375,1.25 -5,9.6875 -9.6875,18.75 l 23.125,19.0625 q 6.875,4.6875 9.6875,5.9375 2.1875,0.9375 5.9375,1.875 0.9375,0.3125 0,0.9375 -7.1875,0.9375 -10.625,1.25 -2.5,0 -3.125,-0.625 l -5.3125,-5.3125 q -11.875,-12.8125 -20.3125,-21.875 -12.8125,20 -26.875,25.9375 -1.25,0.3125 -0.625,-0.625 14.6875,-10 24.0625,-27.5 9.375,-17.5 9.375,-21.25 0,-1.25 -1.5625,-3.4375 -0.625,-0.9375 0.625,-0.625 z"
           style="font-weight:700;font-size:80px;font-family:HGSKyokashotai, HGSKyokashotai_MSFontService, sans-serif"
           id="path38" />
        <path
           d="m 295.44424,345.85977 q 2.20313,0.28125 7.07813,0.28125 h 9.8125 q 3.35937,0 7.01562,-0.0937 0.10938,-0.0156 0.14063,-0.0156 0.32812,0 0.32812,0.39062 0.0312,0.32813 0.0312,0.82813 0,0.48437 -0.0312,0.84375 0,0.39062 -0.32812,0.39062 -0.0781,0 -0.14063,-0.0156 -2.40625,-0.0625 -6.92187,-0.0625 h -11.79688 q -1.92187,0 -3.45312,0.1875 -0.23438,0.0312 -0.625,0.0937 -0.20313,0.0312 -0.25,0.0312 -0.40625,0 -0.54688,-0.45313 -0.20312,-0.85937 -0.3125,-2.40625 z"
           style="font-weight:500;font-size:32px;font-family:'Yu Gothic Medium', 'Yu Gothic Medium_MSFontService', sans-serif"
           id="path40" />
        <path
           d="m 363.78232,353.71915 q -0.59375,0.54687 -0.96875,1.1875 -0.21875,0.42187 -0.34375,0.42187 -0.125,0 -0.45313,-0.32812 -3.67187,-3.34375 -5.65625,-6.09375 -1.78125,-2.45313 -3.39062,-6 l 0.125,10.65625 h 1.53125 l 3.625,-0.0625 q 0.25,0 0.25,0.25 v 1.34375 q 0,0.26562 -0.25,0.26562 l -3.625,-0.0625 h -1.53125 q 0.0937,5.03125 0.0937,5.84375 0,0.26563 -0.25,0.26563 h -1.54688 q -0.28125,0 -0.28125,-0.26563 0,-0.0625 0.0156,-0.875 0.0625,-2.5625 0.0781,-4.96875 h -1.21875 l -3.64062,0.0625 q -0.26563,0 -0.26563,-0.26562 v -1.34375 q 0,-0.25 0.26563,-0.25 l 3.64062,0.0625 h 1.25 l 0.125,-10.6875 q -1.59375,4.04687 -3.84375,7.03125 -1.89062,2.48437 -4.82812,5.04687 -0.32813,0.28125 -0.4375,0.28125 -0.125,0 -0.39063,-0.35937 -0.42187,-0.60938 -0.98437,-0.98438 3.53125,-2.85937 5.75,-5.75 2.20312,-2.82812 3.6875,-6.35937 h -2.95313 l -4.46875,0.0625 q -0.26562,0 -0.26562,-0.25 v -1.42188 q 0,-0.25 0.26562,-0.25 l 4.46875,0.0625 h 3.84375 v -3.26562 q 0,-2.71875 -0.21875,-3.875 1.21875,0.0625 2.10938,0.20312 0.42187,0.0469 0.42187,0.25 0,0.0937 -0.23437,0.60938 -0.15625,0.4375 -0.15625,2.78125 v 3.29687 h 5.1875 l 4.5,-0.0625 q 0.23437,0 0.23437,0.25 v 1.42188 q 0,0.25 -0.23437,0.25 l -4.5,-0.0625 h -4.48438 q 2,3.875 4.4375,6.70312 2.125,2.45313 5.51563,5.23438 z M 343.29794,333.7504 q 0,0.1875 -0.25,0.45312 -0.29687,0.28125 -0.64062,1.17188 -1.04688,2.73437 -2.25,5.0625 v 15.75 l 0.0625,4.98437 q 0,0.25 -0.25,0.25 h -1.54688 q -0.25,0 -0.25,-0.25 l 0.0625,-4.98437 v -8.17188 q 0,-2.875 0.0625,-4.375 -1.375,2.09375 -2.875,3.875 -0.26562,0.3125 -0.39062,0.3125 -0.125,0 -0.28125,-0.3125 -0.35938,-0.8125 -0.82813,-1.28125 4.5625,-5.17187 6.625,-11.42187 0.39063,-1.26563 0.4375,-2.15625 1.09375,0.3125 1.98438,0.70312 0.32812,0.17188 0.32812,0.39063 z"
           style="font-weight:500;font-size:32px;font-family:'Yu Gothic Medium', 'Yu Gothic Medium_MSFontService', sans-serif"
           id="path42" />
        <path
           d="m 395.92294,359.26602 q -0.625,0.5625 -0.95312,1.17188 -0.26563,0.48437 -0.42188,0.48437 -0.0625,0 -0.51562,-0.21875 -4.98438,-2.64062 -7.48438,-7.23437 l -0.0937,0.32812 q -0.79687,2.21875 -2.90625,4.28125 -1.82812,1.78125 -4.17187,2.95313 -0.4375,0.21875 -0.53125,0.21875 -0.17188,0 -0.45313,-0.42188 -0.45312,-0.64062 -1.03125,-0.95312 2.84375,-1.125 4.9375,-3.14063 1.89063,-1.79687 2.65625,-3.84375 l 0.1875,-0.60937 h -1.09375 l -3.84375,0.0625 q -0.25,0 -0.25,-0.25 l 0.0625,-2.34375 v -2.29688 l -0.0625,-2.375 q 0,-0.25 0.25,-0.25 l 3.84375,0.0625 h 1.70313 v -2.78125 h -0.45313 l -2.96875,0.0625 q -0.26562,0 -0.26562,-0.23437 v -1.125 q 0,-0.25 0.26562,-0.25 l 2.96875,0.0625 h 3.01563 l 2.96875,-0.0625 q 0.26562,0 0.26562,0.25 v 1.125 q 0,0.23437 -0.26562,0.23437 l -2.96875,-0.0625 h -0.79688 v 2.78125 h 1.92188 l 3.84375,-0.0625 q 0.25,0 0.25,0.25 l -0.0625,2.375 v 2.29688 l 0.0625,2.34375 q 0,0.25 -0.25,0.25 l -3.84375,-0.0625 h -1.79688 q 2.39063,4.60937 8.28125,6.98437 z m -4.15625,-8.45312 v -4.45313 h -4.28125 q -0.0625,2.92188 -0.26562,4.45313 z m -6.01562,-4.45313 h -4.03125 v 4.45313 h 3.78125 q 0.20312,-1.25 0.25,-4.45313 z m -6.875,-11.10937 q 0,0.21875 -0.26563,0.21875 l -3.0625,-0.0625 h -1.1875 v 3.14062 h 0.125 l 2.89063,-0.0625 q 0.25,0 0.25,0.21875 v 1.125 q 0,0.25 -0.25,0.25 l -2.92188,-0.0625 h -0.0937 v 3.14063 h 0.125 l 2.89063,-0.0625 q 0.25,0 0.25,0.25 v 1.09375 q 0,0.25 -0.25,0.25 l -2.89063,-0.0625 h -0.125 v 3.35937 h 1.09375 l 2.875,-0.0625 q 0.28125,0 0.28125,0.28125 -0.125,0.9375 -0.125,2.07813 -0.35937,7.125 -1.21875,9.17187 -0.75,1.625 -2.59375,1.625 -0.92187,0 -1.875,-0.0937 -0.34375,-0.0469 -0.42187,-0.15625 -0.0469,-0.0781 -0.125,-0.51562 -0.10938,-0.54688 -0.42188,-1.28125 1.53125,0.28125 2.46875,0.28125 1.03125,0 1.53125,-0.92188 0.76563,-1.48437 1,-8.90625 h -5.45312 l -3.32813,0.0625 q -0.25,0 -0.25,-0.25 l 0.0625,-3.875 v -7.54687 l -0.0625,-3.875 q 0,-0.25 0.25,-0.25 l 3.32813,0.0625 h 4.17187 l 3.0625,-0.0625 q 0.26563,0 0.26563,0.25 z m -6.14063,12.73437 v -3.35937 h -3.21875 v 3.35937 z m 0,-4.82812 v -3.14063 h -3.21875 v 3.14063 z m 0,-4.60938 v -3.14062 h -3.21875 v 3.14062 z m 23.54688,2.09375 q -0.39063,0.34375 -0.76563,1.20313 -0.23437,0.45312 -0.39062,0.45312 -0.10938,0 -0.48438,-0.15625 -4.98437,-2.64062 -8.0625,-7.17187 -2.73437,4.34375 -7.39062,7.26562 -0.3125,0.21875 -0.48438,0.21875 -0.14062,0 -0.40625,-0.48437 -0.4375,-0.67188 -0.82812,-0.98438 4.65625,-2.20312 7.45312,-6.75 0.59375,-0.96875 0.82813,-1.89062 0.73437,0.10937 1.78125,0.42187 0.39062,0.14063 0.39062,0.34375 0,0.25 -0.1875,0.35938 -0.26562,0.125 -0.28125,0.15625 3.59375,4.75 8.82813,7.01562 z m -27.20313,11.09375 q -0.28125,3.76563 -1.40625,6.6875 -0.0781,0.17188 -0.15625,0.17188 -0.0469,0 -0.29687,-0.14063 l -0.57813,-0.3125 q -0.35937,-0.21875 -0.35937,-0.39062 0,-0.0625 0.0469,-0.1875 1.0625,-2.54688 1.34375,-6.17188 0.0312,-0.23437 0.10938,-0.23437 0.0469,0 0.34375,0.0625 l 0.5625,0.125 q 0.39062,0.0781 0.39062,0.39062 z m 2.5625,5.01563 q 0,0.29687 -0.32812,0.39062 l -0.57813,0.15625 q -0.25,0.0781 -0.32812,0.0781 -0.10938,0 -0.10938,-0.17188 -0.0937,-2.95312 -0.51562,-5.34375 -0.0312,-0.14062 -0.0312,-0.20312 0,-0.125 0.28125,-0.17188 l 0.51562,-0.10937 q 0.20313,-0.0312 0.28125,-0.0312 0.10938,0 0.14063,0.17187 0.54687,2.8125 0.67187,5.23438 z m 2.29688,-1.07813 q 0.0156,0.0625 0.0156,0.0937 0,0.1875 -0.29687,0.3125 l -0.42188,0.20313 q -0.26562,0.125 -0.32812,0.125 -0.0937,0 -0.10938,-0.23438 -0.29687,-2.42187 -0.92187,-4.46875 -0.0312,-0.0937 -0.0312,-0.14062 0,-0.0937 0.34375,-0.21875 l 0.34375,-0.125 q 0.1875,-0.0625 0.26562,-0.0625 0.10938,0 0.15625,0.15625 0.60938,1.82812 0.98438,4.35937 z m 1.95312,-1.4375 q 0.0312,0.0781 0.0312,0.125 0,0.10938 -0.25,0.21875 l -0.35937,0.15625 q -0.21875,0.125 -0.3125,0.125 -0.10938,0 -0.125,-0.17187 -0.45313,-2 -1.09375,-3.34375 -0.0469,-0.10938 -0.0469,-0.15625 0,-0.0625 0.23438,-0.15625 l 0.39062,-0.15625 q 0.14063,-0.0625 0.20313,-0.0625 0.10937,0 0.17187,0.15625 0.60938,1.23437 1.15625,3.26562 z"
           style="font-weight:500;font-size:32px;font-family:'Yu Gothic Medium', 'Yu Gothic Medium_MSFontService', sans-serif"
           id="path44" />
        <path
           d="m 415.29794,342.10977 q 0,0.20313 -0.25,0.20313 l -3.9375,-0.0312 v 3.29687 l 0.0625,3.70313 q 0,0.26562 -0.28125,0.26562 h -1.42187 q -0.25,0 -0.25,-0.26562 l 0.0625,-3.70313 v -3.29687 h -3.96875 q -0.23438,1.67187 -0.67188,2.96875 -1.03125,2.82812 -3.71875,5 -0.34375,0.25 -0.40625,0.25 -0.0937,0 -0.48437,-0.375 -0.48438,-0.53125 -1.09375,-0.84375 3.01562,-1.95313 3.9375,-4.64063 0.39062,-0.9375 0.57812,-2.35937 l -4.21875,0.0312 q -0.25,0 -0.25,-0.20313 v -1.26562 q 0,-0.25 0.25,-0.25 l 4.21875,0.0625 h 0.20313 q 0.125,-1.92188 0.125,-3.26563 v -1.65625 l -3.59375,0.0625 q -0.25,0 -0.25,-0.25 v -1.21875 q 0,-0.25 0.25,-0.25 l 3.96875,0.0625 h 6.125 l 3.96875,-0.0625 q 0.25,0 0.25,0.25 v 1.21875 q 0,0.25 -0.25,0.25 -0.0469,0 -0.40625,-0.0156 -1.1875,-0.0312 -2.73438,-0.0469 v 4.92188 l 3.9375,-0.0625 q 0.25,0 0.25,0.25 z m -6.01562,-1.45312 v -4.92188 h -3.6875 v 1.82813 q 0,1.8125 -0.125,3.09375 z m 17.5625,19.3125 q 0,0.25 -0.25,0.25 l -4.17188,-0.0625 h -19.20312 l -4.15625,0.0625 q -0.25,0 -0.25,-0.25 v -1.35938 q 0,-0.25 0.25,-0.25 l 4.15625,0.0625 h 8.45312 v -4.21875 h -4.28125 l -4.51562,0.0625 q -0.26563,0 -0.26563,-0.25 v -1.29687 q 0,-0.28125 0.26563,-0.28125 l 4.51562,0.0625 h 4.28125 v -0.60938 q 0,-2.04687 -0.21875,-3.17187 1.10938,0.0469 2.10938,0.20312 0.34375,0.0469 0.34375,0.3125 0,0.25 -0.125,0.54688 -0.1875,0.48437 -0.1875,2.10937 v 0.60938 h 5.0625 l 4.5,-0.0625 q 0.26562,0 0.26562,0.28125 v 1.29687 q 0,0.25 -0.26562,0.25 l -4.5,-0.0625 h -5.0625 v 4.21875 h 8.82812 l 4.17188,-0.0625 q 0.25,0 0.25,0.25 z m -1.4375,-26.5 q 0,0.1875 -0.20313,0.625 -0.15625,0.40625 -0.15625,2.5625 v 7.14062 l 0.0312,3.45313 q 0,1.32812 -0.79687,1.89062 -0.75,0.54688 -3.71875,0.54688 -0.5,0 -0.59375,-0.0937 -0.0781,-0.0937 -0.17188,-0.54688 -0.21875,-0.73437 -0.57812,-1.375 1.4375,0.15625 2.5,0.15625 0.90625,0 1.21875,-0.3125 0.28125,-0.26562 0.28125,-0.90625 v -9.92187 q 0,-2.625 -0.21875,-3.67188 0.82812,0.0312 2.01562,0.15625 0.39063,0.0469 0.39063,0.29688 z m -6.5,1.34375 q 0,0.23437 -0.125,0.4375 -0.1875,0.39062 -0.1875,2.01562 v 4 l 0.0625,3.04688 q 0,0.28125 -0.25,0.28125 h -1.42188 q -0.25,0 -0.25,-0.28125 l 0.0625,-3.04688 v -4 q 0,-1.96875 -0.21875,-2.90625 0.73438,0.0312 1.96875,0.15625 0.35938,0.0625 0.35938,0.29688 z"
           style="font-weight:500;font-size:32px;font-family:'Yu Gothic Medium', 'Yu Gothic Medium_MSFontService', sans-serif"
           id="path46" />
        <path
           d="m 456.09482,346.95352 -0.0625,3.75 v 3.4375 l 0.0312,4.28125 q 0,1.59375 -0.67188,2.10938 -0.79687,0.57812 -2.79687,0.57812 -0.23438,0 -0.375,0 -0.48438,0 -0.59375,-0.0937 -0.0937,-0.0937 -0.23438,-0.54687 -0.21875,-0.6875 -0.67187,-1.25 1.09375,0.0937 2.17187,0.0937 0.90625,0 1.17188,-0.3125 0.17187,-0.23438 0.17187,-0.85938 v -2.28125 h -10.45312 v 1.21875 l 0.0625,4.0625 q 0,0.21875 -0.26563,0.21875 h -1.40625 q -0.25,0 -0.25,-0.21875 l 0.0625,-4 v -6.59375 l -0.0625,-3.59375 q 0,-0.25 0.25,-0.25 l 4.42188,0.0625 h 5.5 l 3.75,-0.0625 q 0.25,0 0.25,0.25 z m -1.85938,7.40625 v -2.28125 h -10.45312 v 2.28125 z m 0,-3.78125 v -2.28125 h -10.45312 v 2.28125 z m 4.79688,-5.92187 q 0,0.21875 -0.21875,0.21875 l -4.35938,-0.0625 h -9.75 l -4.35937,0.0625 q -0.25,0 -0.25,-0.21875 v -1.15625 q 0,-0.25 0.25,-0.25 l 4.35937,0.0625 h 3.26563 v -2.28125 h -2.1875 l -3.82813,0.0781 q -0.26562,0 -0.26562,-0.26562 v -1.04688 q 0,-0.26562 0.26562,-0.26562 l 3.82813,0.0625 h 2.1875 v -2.14063 h -2.6875 l -4.09375,0.0625 q -0.26563,0 -0.26563,-0.25 v -1.125 q 0,-0.25 0.26563,-0.25 l 4.09375,0.0625 h 2.6875 q 0,-2.17187 -0.23438,-3.51562 1.39063,0.0469 2.04688,0.15625 0.39062,0.0469 0.39062,0.28125 0,0.21875 -0.1875,0.64062 -0.20312,0.46875 -0.20312,2.4375 h 3.6875 l 4.125,-0.0625 q 0.26562,0 0.26562,0.25 v 1.125 q 0,0.25 -0.26562,0.25 l -4.125,-0.0625 h -3.6875 v 2.14063 h 2.79687 l 3.79688,-0.0625 q 0.29687,0 0.29687,0.26562 v 1.04688 q 0,0.26562 -0.29687,0.26562 l -3.79688,-0.0781 h -2.79687 v 2.28125 h 4.67187 l 4.35938,-0.0625 q 0.21875,0 0.21875,0.25 z m -22.21875,-11.60938 q 0,0.0781 -0.125,0.57813 -0.23438,0.67187 -0.23438,3.29687 v 18.59375 l 0.0625,5.625 q 0,0.25 -0.25,0.25 h -1.51562 q -0.25,0 -0.25,-0.25 l 0.0625,-5.59375 v -18.5625 q 0,-2.96875 -0.25,-4.39062 1.1875,0.0469 2.10937,0.1875 0.39063,0.0625 0.39063,0.26562 z m -3.5625,7.10938 q -0.32813,4.01562 -1.34375,6.5625 -0.0781,0.15625 -0.17188,0.15625 -0.0625,0 -0.3125,-0.10938 l -0.76562,-0.3125 q -0.42188,-0.17187 -0.42188,-0.26562 0,-0.0625 0.0625,-0.25 1.04688,-2.53125 1.28125,-6.20313 0,-0.1875 0.14063,-0.1875 0.0781,0 0.34375,0.0625 l 0.82812,0.1875 q 0.35938,0.0937 0.35938,0.25 0,0.0156 0,0.0469 0,0.0469 0,0.0625 z m 6.71875,3.28125 q 0.0156,0.0937 0.0156,0.14062 0,0.15625 -0.34375,0.28125 l -0.76562,0.25 q -0.28125,0.0937 -0.375,0.0937 -0.14063,0 -0.17188,-0.1875 -0.32812,-2.3125 -1.14062,-4.40625 -0.0469,-0.10937 -0.0469,-0.17187 0,-0.125 0.39063,-0.25 l 0.73437,-0.21875 q 0.15625,-0.0469 0.23438,-0.0469 0.125,0 0.1875,0.14063 0.78125,2.04687 1.28125,4.375 z"
           style="font-weight:500;font-size:32px;font-family:'Yu Gothic Medium', 'Yu Gothic Medium_MSFontService', sans-serif"
           id="path48" />
        <path
           d="m 491.67294,359.6254 q -0.51562,0.51562 -0.85937,1.21875 -0.23438,0.42187 -0.39063,0.42187 -0.0937,0 -0.39062,-0.1875 -2.92188,-2.1875 -4.92188,-4.54687 -1.46875,2.23437 -3.48437,4.20312 -0.32813,0.32813 -0.42188,0.32813 -0.15625,0 -0.375,-0.42188 -0.40625,-0.59375 -0.9375,-1.01562 2.46875,-2.1875 4.0625,-4.60938 -2.4375,-3.57812 -3.67187,-8.85937 h -0.89063 v 8.45312 l 0.0469,6.51563 q 0,0.26562 -0.21875,0.26562 h -1.4375 q -0.28125,0 -0.28125,-0.26562 l 0.0625,-6.35938 v -13.71875 l -0.0625,-6.5 q 0,-0.25 0.28125,-0.25 l 3.875,0.0625 h 4.64062 l 3.60938,-0.0625 q 0.32812,0 0.32812,0.28125 -0.125,1.0625 -0.17187,1.67188 -0.26563,3.04687 -0.60938,4.0625 -0.34375,1.07812 -1.14062,1.5 -0.67188,0.35937 -1.85938,0.35937 -0.57812,0 -2.10937,-0.0625 -0.4375,-0.0312 -0.51563,-0.10937 -0.0937,-0.0937 -0.15625,-0.46875 -0.125,-0.70313 -0.35937,-1.21875 1.625,0.20312 2.92187,0.20312 0.78125,0 1.125,-0.3125 0.29688,-0.28125 0.5,-1.03125 0.29688,-1.0625 0.35938,-3.10937 h -8.82813 v 8.4375 h 7.76563 q 0.48437,0 0.73437,-0.125 0.25,-0.0937 0.39063,-0.0937 0.25,0 0.875,0.57812 0.57812,0.57813 0.57812,0.82813 0,0.23437 -0.20312,0.375 -0.26563,0.23437 -0.54688,1.21875 -1.25,4.625 -2.875,7.60937 1.96875,2.42188 5.5625,4.73438 z m -4.25,-13.46875 h -5.51562 q 1.15625,4.35937 3.04687,7.17187 1.40625,-2.71875 2.46875,-7.17187 z m -10.78125,3.65625 q 0,0.25 -0.25,0.25 l -3.90625,-0.0625 h -1.625 v 3.625 h 1.4375 l 3.60938,-0.0625 q 0.25,0 0.25,0.25 v 1.1875 q 0,0.25 -0.25,0.25 l -3.60938,-0.0625 h -1.4375 v 2.625 l 0.0469,3.39062 q 0,0.21875 -0.25,0.21875 h -1.4375 q -0.25,0 -0.25,-0.21875 l 0.0625,-3.39062 v -2.625 h -1.70313 l -3.65625,0.0625 q -0.25,0 -0.25,-0.25 v -1.1875 q 0,-0.25 0.25,-0.25 l 3.65625,0.0625 h 1.70313 v -3.625 h -2.21875 l -3.90625,0.0625 q -0.21875,0 -0.21875,-0.25 v -1.1875 q 0,-0.25 0.21875,-0.25 l 3.90625,0.0625 h 4.23437 q 0.6875,-1.3125 1.4375,-3.48438 0.17188,-0.5625 0.3125,-1.34375 0.82813,0.14063 1.67188,0.46875 0.32812,0.14063 0.32812,0.32813 0,0.15625 -0.23437,0.3125 -0.23438,0.20312 -0.42188,0.67187 -0.75,1.70313 -1.4375,3.04688 l 3.6875,-0.0625 q 0.25,0 0.25,0.25 z m -0.0312,-6.875 q 0,0.25 -0.25,0.25 l -3.90625,-0.0625 h -5.60937 l -3.90625,0.0625 q -0.21875,0 -0.21875,-0.25 v -1.1875 q 0,-0.25 0.21875,-0.25 l 3.90625,0.0625 h 2.1875 v -3.35938 h -1.48438 l -3.57812,0.0625 q -0.25,0 -0.25,-0.26562 v -1.21875 q 0,-0.21875 0.25,-0.21875 l 3.57812,0.0625 h 1.48438 v -0.85938 q 0,-2.125 -0.23438,-3.20312 1.21875,0.0469 2.03125,0.1875 0.40625,0.0625 0.40625,0.26562 0,0.125 -0.1875,0.57813 -0.1875,0.34375 -0.1875,1.84375 v 1.1875 h 1.14063 l 3.5625,-0.0625 q 0.25,0 0.25,0.21875 v 1.21875 q 0,0.26562 -0.25,0.26562 l -3.5625,-0.0625 h -1.14063 v 3.35938 h 1.59375 l 3.90625,-0.0625 q 0.25,0 0.25,0.25 z m -8.51562,4.28125 q 0.0156,0.0937 0.0156,0.14062 0,0.15625 -0.34375,0.28125 l -0.73437,0.25 q -0.26563,0.0937 -0.35938,0.0937 -0.125,0 -0.1875,-0.1875 -0.45312,-1.60937 -1.23437,-3.35937 -0.0781,-0.125 -0.0781,-0.1875 0,-0.10938 0.29688,-0.20313 l 0.82812,-0.28125 q 0.15625,-0.0625 0.23438,-0.0625 0.10937,0 0.21875,0.1875 0.75,1.46875 1.34375,3.32813 z"
           style="font-weight:500;font-size:32px;font-family:'Yu Gothic Medium', 'Yu Gothic Medium_MSFontService', sans-serif"
           id="path50" />
        <path
           d="m 504.23544,344.0004 v -3.875 q 0,-3.1875 -0.39062,-4.79688 1.6875,0.15625 2.65625,0.4375 0.40625,0.14063 0.40625,0.5 0,0.17188 -0.125,0.40625 -0.375,0.8125 -0.375,3.42188 v 3.42187 l 9.34375,-2.20312 q 1.59375,-0.35938 2.14062,-0.8125 0.1875,-0.15625 0.39063,-0.15625 0.17187,0 0.4375,0.125 0.73437,0.39062 1.46875,1.1875 0.20312,0.1875 0.20312,0.42187 0,0.26563 -0.29687,0.5 -0.51563,0.4375 -0.79688,1 -2.35937,4.40625 -5.21875,7.0625 -0.28125,0.26563 -0.51562,0.26563 -0.17188,0 -0.375,-0.14063 -0.82813,-0.45312 -1.67188,-0.625 3.78125,-3.0625 5.82813,-7.29687 l -10.9375,2.71875 v 7.75 q 0,1.82812 1.125,2.42187 1.01562,0.51563 3.73437,0.51563 4.01563,0 7.23438,-0.60938 0.0937,-0.0156 0.15625,-0.0156 0.23437,0 0.3125,0.4375 0.17187,1.1875 0.17187,1.4375 0,0.375 -0.48437,0.40625 -3.07813,0.39062 -7.26563,0.39062 -4.375,0 -5.89062,-1.26562 -1.26563,-1.04688 -1.26563,-3.59375 v -7.35938 l -2.71875,0.67188 q -3.15625,0.78125 -4.84375,1.4375 -0.21875,0.0781 -0.34375,0.0781 -0.20312,0 -0.35937,-0.3125 -0.375,-0.75 -0.82813,-2.10937 2.28125,-0.21875 5.95313,-1.10938 z"
           style="font-weight:500;font-size:32px;font-family:'Yu Gothic Medium', 'Yu Gothic Medium_MSFontService', sans-serif"
           id="path52" />
        <path
           d="m 538.37607,340.5004 -0.57813,-2.8125 q -0.42187,-2.07813 -1.15625,-3.42188 0.71875,-0.0937 1.51563,-0.0937 0.67187,0 1.17187,0.0625 0.53125,0.0625 0.53125,0.4375 0,0.0625 -0.0156,0.14063 -0.0781,0.375 -0.0781,0.79687 0,0.71875 0.20313,1.8125 l 0.51562,2.73438 3.71875,-0.67188 q 3.40625,-0.625 4.90625,-1 0.0625,0 0.10938,0 0.17187,0 0.25,0.23438 0.25,0.84375 0.35937,1.5 0,0.0469 0,0.0937 0,0.21875 -0.32812,0.25 -4.35938,0.75 -4.85938,0.82812 l -3.73437,0.67188 1.07812,5.21875 5.34375,-0.95313 q 2.75,-0.5 4.625,-1 0.10938,-0.0156 0.17188,-0.0156 0.17187,0 0.23437,0.25 0.15625,0.57812 0.32813,1.40625 0,0.0469 0,0.0781 0,0.35938 -0.32813,0.39063 -1.85937,0.28125 -4.67187,0.8125 l -5.28125,0.95312 0.92187,4.39063 q 0.51563,2.53125 1.29688,5.5625 0.0312,0.0937 0.0312,0.1875 0,0.23437 -0.28125,0.32812 -0.64063,0.23438 -1.53125,0.35938 -0.10938,0.0156 -0.17188,0.0156 -0.28125,0 -0.3125,-0.34375 -0.375,-1.98437 -1.10937,-5.5625 l -0.95313,-4.51562 -5.21875,0.89062 q -1.96875,0.32813 -4.73437,1.01563 -0.14063,0.0469 -0.23438,0.0469 -0.25,0 -0.34375,-0.32812 -0.3125,-0.875 -0.57812,-1.89063 2.125,-0.1875 5.4375,-0.76562 l 5.28125,-0.89063 -1.125,-5.3125 -3.73438,0.60938 q -2.84375,0.46875 -4.48437,0.92187 -0.10938,0.0312 -0.17188,0.0312 -0.20312,0 -0.3125,-0.28125 -0.26562,-0.71875 -0.57812,-1.92187 1.95312,-0.10938 5.21875,-0.64063 z"
           style="font-weight:500;font-size:32px;font-family:'Yu Gothic Medium', 'Yu Gothic Medium_MSFontService', sans-serif"
           id="path54" />
        <path
           d="m 576.79794,355.60977 h 1.76563 l 4.0625,-0.0312 q 0.10937,-0.0156 0.15625,-0.0156 0.32812,0 0.35937,0.4375 v 1.14062 q -0.0312,0.29688 -0.0937,0.35938 -0.0625,0.0625 -0.35937,0.0625 -3,-0.0625 -4.3125,-0.0625 h -11.17188 q -2.375,0 -4.09375,0.17187 -0.0781,0 -0.0937,0 -0.3125,0 -0.35937,-0.48437 -0.125,-0.5625 -0.125,-1.67188 1.79687,0.125 4.57812,0.125 h 7.64063 l 1.21875,-8.85937 h -5.40625 q -2.15625,0 -3.75,0.10937 -0.0625,0 -0.125,0 -0.3125,0 -0.34375,-0.39062 -0.10938,-0.64063 -0.17188,-1.76563 2.15625,0.1875 4.48438,0.1875 h 4.67187 q 0.82813,0 1.28125,-0.25 0.1875,-0.0937 0.32813,-0.0937 0.17187,0 0.34375,0.125 0.75,0.54688 1.17187,1.15625 0.15625,0.20313 0.15625,0.375 0,0.20313 -0.20312,0.39063 -0.375,0.32812 -0.45313,1.21875 z"
           style="font-weight:500;font-size:32px;font-family:'Yu Gothic Medium', 'Yu Gothic Medium_MSFontService', sans-serif"
           id="path56" />
        <path
           d="m 597.70419,335.0629 q 1.45313,0.17187 2.60938,0.51562 0.35937,0.10938 0.35937,0.45313 0,0.14062 -0.0625,0.3125 -0.32812,0.59375 -0.32812,3.35937 v 5.40625 q 0,2.14063 0.0937,4.23438 0,0.5 -0.46875,0.5 h -1.5 q -0.40625,0 -0.40625,-0.375 0,-0.0625 0,-0.0937 0.0625,-2.85938 0.0625,-4.39063 v -5.28125 q 0,-2.82812 -0.35938,-4.64062 z m 1.46875,23.5625 q 5.01563,-1.46875 7.46875,-4.39063 2.5625,-3.125 2.5625,-8.57812 v -5.5 q 0,-4.01563 -0.35937,-5.60938 1.60937,0.17188 2.71875,0.51563 0.32812,0.10937 0.32812,0.42187 0,0.17188 -0.10937,0.375 -0.3125,0.64063 -0.3125,4.20313 v 5.40625 q 0,6.25 -2.78125,9.79687 -2.51563,3.07813 -7.01563,4.70313 -0.21875,0.0781 -0.375,0.0781 -0.25,0 -0.51562,-0.23437 -0.64063,-0.6875 -1.60938,-1.1875 z"
           style="font-weight:500;font-size:32px;font-family:'Yu Gothic Medium', 'Yu Gothic Medium_MSFontService', sans-serif"
           id="path58" />
        <path
           d="m 638.42294,345.26602 q -0.125,3.03125 -0.57812,4.98438 -0.4375,1.875 -1.34375,3.51562 -2,3.89063 -5.65625,6.01563 -0.42188,0.26562 -0.64063,0.26562 -0.1875,0 -0.35937,-0.15625 -0.5625,-0.54687 -1.78125,-1.0625 2.53125,-1.3125 4.03125,-2.78125 1.3125,-1.28125 2.23437,-3.0625 1.5625,-2.92187 1.67188,-7.71875 h -6.53125 q -1.89063,0 -4.60938,0.20313 -0.0312,0 -0.0937,0 -0.28125,0 -0.35937,-0.48438 -0.10938,-0.64062 -0.1875,-1.85937 2.3125,0.15625 5.25,0.15625 h 13.85937 q 3.32813,0 5.8125,-0.15625 0.35938,0 0.35938,0.51562 v 1.34375 q 0,0.40625 -0.42188,0.40625 -3.64062,-0.125 -5.71875,-0.125 z m -10.29687,-9.20312 q 2.35937,0.15625 5.15625,0.15625 h 6.20312 q 3.70313,0 5.40625,-0.0937 0.0625,0 0.0781,0 0.26562,0 0.26562,0.42187 0.0312,0.3125 0.0312,0.64063 0,0.34375 -0.0312,0.625 0,0.45312 -0.375,0.45312 -1.73437,-0.0625 -5.375,-0.0625 h -6.20312 q -2.5,0 -4.57813,0.125 -0.0625,0 -0.0937,0 -0.28125,0 -0.32812,-0.42187 -0.10938,-0.85938 -0.15625,-1.84375 z"
           style="font-weight:500;font-size:32px;font-family:'Yu Gothic Medium', 'Yu Gothic Medium_MSFontService', sans-serif"
           id="path60" />
        <path
           d="m 670.68857,346.20352 v 8.95313 q 0,3.07812 0.0156,4.48437 0.0156,0.0469 0.0156,0.0937 0,0.28125 -0.35938,0.28125 -0.34375,0.0312 -0.73437,0.0312 -0.40625,0 -0.76563,-0.0312 -0.34375,0 -0.34375,-0.375 0.0937,-2.23437 0.0937,-4.42187 v -7.32813 q -3.35937,3.125 -7.78125,5.57813 -0.10937,0.0625 -0.25,0.0625 -0.21875,0 -0.35937,-0.15625 -0.5625,-0.625 -1.4375,-0.96875 7.95312,-4.375 13.01562,-10.5625 0.9375,-1.09375 1.42188,-2.39063 1.21875,0.57813 2.01562,1.375 0.23438,0.23438 0.23438,0.40625 0,0.20313 -0.32813,0.35938 -0.54687,0.26562 -1.375,1.25 -2.07812,2.42187 -3.07812,3.35937 z"
           style="font-weight:500;font-size:32px;font-family:'Yu Gothic Medium', 'Yu Gothic Medium_MSFontService', sans-serif"
           id="path62" />
        <path
           d="m 714.87607,352.15665 q 0,0.25 -0.25,0.25 l -4.17188,-0.0625 h -8.5 v 3.32812 l 0.0312,2.75 q 0,1.48438 -0.875,2.07813 -0.84375,0.53125 -3.29687,0.53125 -0.40625,0 -1.14063,-0.0156 -0.48437,0 -0.57812,-0.0781 -0.0781,-0.0781 -0.1875,-0.53125 -0.34375,-1.03125 -0.67188,-1.46875 1.67188,0.1875 3.32813,0.1875 0.78125,0 1.09375,-0.28125 0.3125,-0.28125 0.3125,-0.96875 v -5.53125 h -8.73438 l -4.17187,0.0625 q -0.25,0 -0.25,-0.25 v -1.42188 q 0,-0.25 0.25,-0.25 l 4.17187,0.0625 h 8.73438 q 0,-2.04687 -0.23438,-3.15625 1.0625,0.15625 1.64063,0.3125 2.25,-1.3125 4.15625,-2.9375 h -8.60938 l -4.15625,0.0625 q -0.25,0 -0.25,-0.25 v -1.32812 q 0,-0.25 0.25,-0.25 l 4.15625,0.0625 h 8.96875 q 0.64063,0 0.82813,-0.0625 0.20312,-0.0625 0.3125,-0.0625 0.23437,0 0.90625,0.67187 0.64062,0.64063 0.64062,1 0,0.3125 -0.32812,0.42188 -0.53125,0.15625 -1.34375,0.82812 -1.82813,1.45313 -4.92188,3.21875 -0.0312,0.21875 -0.0312,1.07813 v 0.39062 h 8.5 l 4.17188,-0.0625 q 0.25,0 0.25,0.25 z m -0.98438,-7.32813 q 0,0.25 -0.29687,0.25 h -1.4375 q -0.25,0 -0.25,-0.25 v -4.76562 h -22.04688 v 4.76562 q 0,0.25 -0.26562,0.25 h -1.46875 q -0.25,0 -0.25,-0.25 l 0.0625,-3.42187 v -1.125 l -0.0625,-1.76563 q 0,-0.21875 0.25,-0.21875 l 4.42187,0.0625 h 13.3125 q 1.15625,-1.75 2.07813,-3.9375 0.28125,-0.625 0.40625,-1.46875 1,0.21875 1.89062,0.67188 0.35938,0.17187 0.35938,0.42187 0,0.20313 -0.23438,0.34375 -0.3125,0.21875 -0.59375,0.73438 -0.96875,1.8125 -1.92187,3.23437 h 1.34375 l 4.40625,-0.0625 q 0.29687,0 0.29687,0.21875 l -0.0625,1.57813 v 1.3125 z m -18.64062,-7.96875 q 0.0781,0.10938 0.0781,0.15625 0,0.0781 -0.35937,0.25 l -0.85938,0.42188 q -0.375,0.15625 -0.42187,0.15625 -0.10938,0 -0.1875,-0.21875 -0.84375,-1.78125 -2.34375,-3.625 -0.0625,-0.0781 -0.0625,-0.14063 0,-0.125 0.35937,-0.26562 l 0.79688,-0.35938 q 0.26562,-0.10937 0.35937,-0.10937 0.125,0 0.25,0.14062 1.26563,1.5625 2.39063,3.59375 z m 7.07812,-0.29687 q 0.0469,0.10937 0.0469,0.15625 0,0.0781 -0.40625,0.26562 l -0.85938,0.3125 q -0.3125,0.14063 -0.40625,0.14063 -0.125,0 -0.20312,-0.23438 -0.57813,-1.78125 -1.85938,-3.78125 -0.0625,-0.0937 -0.0625,-0.15625 0,-0.125 0.35938,-0.25 l 0.85937,-0.29687 q 0.21875,-0.0781 0.32813,-0.0781 0.10937,0 0.21875,0.14063 1.15625,1.71875 1.98437,3.78125 z"
           style="font-weight:500;font-size:32px;font-family:'Yu Gothic Medium', 'Yu Gothic Medium_MSFontService', sans-serif"
           id="path64" />
        <path
           d="m 742.46982,361.10977 q 0,0.25 -0.25,0.25 h -1.48438 q -0.25,0 -0.25,-0.25 v -1.0625 h -14.96875 v 1.1875 q 0,0.25 -0.25,0.25 h -1.48437 q -0.25,0 -0.25,-0.25 l 0.0625,-5.84375 v -2.84375 l -0.0625,-3.89062 q 0,-0.25 0.25,-0.25 l 4.48437,0.0625 h 2.5625 l 0.4375,-1.03125 q 0.34375,-0.82813 0.51563,-1.84375 1.20312,0.17187 1.98437,0.4375 0.32813,0.14062 0.32813,0.32812 0,0.23438 -0.25,0.45313 -0.28125,0.17187 -0.48438,0.59375 l -0.54687,1.0625 h 4.89062 l 4.51563,-0.0625 q 0.25,0 0.25,0.25 l -0.0625,3.46875 v 3.20312 z m -1.98438,-2.65625 v -3.60937 h -14.96875 v 3.60937 z m 0,-5.14062 v -3.25 h -14.96875 v 3.25 z m -8.79687,-9.75 q 0,1.48437 -0.70313,1.98437 -0.71875,0.57813 -3.51562,0.57813 -0.45313,0 -0.54688,-0.0937 -0.0781,-0.0937 -0.20312,-0.54688 -0.15625,-0.64062 -0.5625,-1.21875 0.92187,0.0937 2.17187,0.0937 0.9375,0 1.21875,-0.29687 0.21875,-0.23438 0.21875,-0.84375 v -7.8125 h -6.65625 l -3.60937,0.0625 q -0.26563,0 -0.26563,-0.28125 v -1.25 q 0,-0.25 0.26563,-0.25 l 3.60937,0.0625 h 4.67188 l 3.65625,-0.0625 q 0.25,0 0.25,0.25 l -0.0625,2.29687 v 3.90625 z m 13.89062,0 q 0,1.40625 -0.70312,1.98437 -0.71875,0.53125 -3.5625,0.57813 -0.4375,0 -0.53125,-0.0937 -0.0781,-0.0781 -0.20313,-0.48438 -0.125,-0.51562 -0.5625,-1.28125 1.23438,0.0937 2.14063,0.0937 0.96875,0 1.26562,-0.29687 0.23438,-0.23438 0.23438,-0.84375 v -7.8125 h -6.59375 l -3.60938,0.0625 q -0.26562,0 -0.26562,-0.28125 v -1.25 q 0,-0.25 0.26562,-0.25 l 3.60938,0.0625 h 4.57812 l 3.6875,-0.0625 q 0.25,0 0.25,0.25 l -0.0625,2.29687 v 3.90625 z m -17.54687,-2.23438 q 0.0312,0.26563 0.0312,0.375 0,0.26563 -0.57813,0.5625 -2.73437,1.39063 -5.75,2.75 -0.64062,0.28125 -1.0625,0.70313 -0.1875,0.1875 -0.375,0.1875 -0.23437,0 -0.35937,-0.25 -0.35938,-0.6875 -0.76563,-1.79688 1.09375,-0.20312 2.23438,-0.64062 3.3125,-1.28125 6.625,-3.10938 -0.0156,0.25 -0.0156,0.5625 0,0.32813 0.0156,0.65625 z m 13.92187,-0.28125 q 0.0156,0.25 0.0156,0.3125 0,0.25 -0.0781,0.32813 -0.0781,0.0781 -0.48437,0.28125 -2.15625,1.0625 -5.20313,2.4375 -1.04687,0.48437 -1.1875,0.64062 -0.26562,0.25 -0.45312,0.25 -0.14063,0 -0.34375,-0.35937 -0.45313,-0.875 -0.70313,-1.65625 1.04688,-0.14063 2.42188,-0.67188 2.45312,-0.90625 6.01562,-2.78125 -0.0156,0.21875 -0.0156,0.5625 0,0.34375 0.0156,0.65625 z m -2.6875,-2.28125 q 0.14063,0.125 0.14063,0.1875 0,0.0781 -0.17188,0.29688 l -0.57812,0.73437 q -0.21875,0.29688 -0.34375,0.29688 -0.0781,0 -0.20313,-0.10938 -1.40625,-1.32812 -3.54687,-2.42187 -0.15625,-0.0625 -0.15625,-0.14063 0,-0.0625 0.21875,-0.34375 l 0.54687,-0.60937 q 0.17188,-0.17188 0.3125,-0.17188 0.0625,0 0.20313,0.0469 1.84375,0.85937 3.57812,2.23437 z m -13.5625,-0.0937 q 0.15625,0.125 0.15625,0.20313 0,0.0781 -0.1875,0.3125 l -0.54687,0.67187 q -0.25,0.3125 -0.35938,0.3125 -0.0781,0 -0.21875,-0.10937 -1.45312,-1.29688 -3.60937,-2.3125 -0.125,-0.0625 -0.125,-0.125 0,-0.0781 0.21875,-0.32813 l 0.54687,-0.67187 q 0.125,-0.15625 0.28125,-0.15625 0.0781,0 0.15625,0.0312 1.85938,0.78125 3.6875,2.17187 z"
           style="font-weight:500;font-size:32px;font-family:'Yu Gothic Medium', 'Yu Gothic Medium_MSFontService', sans-serif"
           id="path66" />
        <path
           d="m 752.82919,344.64102 q 0.23438,-0.34375 0.59375,-0.95312 0.29688,-0.48438 0.39063,-0.625 0.15625,-0.25 0.375,-0.25 0.0937,0 0.17187,0.0312 3,1.09375 5.64063,2.90625 0.25,0.17187 0.25,0.375 0,0.125 -0.0937,0.29687 -0.39063,0.79688 -0.82813,1.375 -0.15625,0.21875 -0.3125,0.21875 -0.125,0 -0.29687,-0.15625 -2.48438,-1.9375 -5.89063,-3.21875 z m 3.78125,-7.375 q 0.15625,-0.21875 0.53125,-0.79687 0.29688,-0.46875 0.45313,-0.6875 0.17187,-0.25 0.3125,-0.25 0.0781,0 0.26562,0.0781 2.65625,1.125 5.5625,3.32813 0.21875,0.17187 0.21875,0.3125 0,0.10937 -0.125,0.32812 -0.67187,1.09375 -0.92187,1.375 -0.125,0.14063 -0.23438,0.14063 -0.10937,0 -0.34375,-0.20313 -2.35937,-2.15625 -5.71875,-3.625 z m -1.1875,19.29688 q 1.67188,-0.375 3.35938,-1.25 5.0625,-2.64063 8.79687,-5.5 5.4375,-4.23438 9.125,-8.85938 0.15625,1.0625 0.59375,2.07813 0.0937,0.17187 0.0937,0.32812 0,0.25 -0.25,0.53125 -3.4375,4.01563 -8.4375,7.84375 -3.4375,2.65625 -9.34375,5.98438 -1.09375,0.57812 -1.54687,1.07812 -0.17188,0.1875 -0.375,0.1875 -0.26563,0 -0.51563,-0.28125 -0.57812,-0.67187 -1.5,-2.14062 z"
           style="font-weight:500;font-size:32px;font-family:'Yu Gothic Medium', 'Yu Gothic Medium_MSFontService', sans-serif"
           id="path68" />
        <path
           d="m 799.26669,347.60977 q 5.0625,3.6875 9.1875,8.03125 0.21875,0.1875 0.21875,0.3125 0,0.125 -0.1875,0.35938 -0.35937,0.42187 -1.15625,1.14062 -0.15625,0.14063 -0.26562,0.14063 -0.125,0 -0.3125,-0.20313 -3.79688,-4.34375 -8.82813,-8.125 -5.42187,5.60938 -11.42187,8.92188 -0.28125,0.15625 -0.42188,0.15625 -0.1875,0 -0.39062,-0.20313 -0.4375,-0.53125 -1.65625,-1.15625 6.67187,-3.3125 11.78125,-8.67187 3.4375,-3.65625 6.07812,-8.57813 h -9.64062 q -1.71875,0 -4.60938,0.1875 -0.29687,0 -0.375,-0.34375 -0.1875,-0.90625 -0.1875,-2.04687 1.5625,0.125 4.95313,0.125 h 9.28125 q 1.39062,0 1.82812,-0.26563 0.0937,-0.0625 0.21875,-0.0625 0.1875,0 0.42188,0.17188 0.70312,0.54687 1.3125,1.29687 0.10937,0.15625 0.10937,0.29688 0,0.20312 -0.26562,0.4375 -0.4375,0.35937 -0.9375,1.1875 -2.125,3.64062 -4.73438,6.89062 z"
           style="font-weight:500;font-size:32px;font-family:'Yu Gothic Medium', 'Yu Gothic Medium_MSFontService', sans-serif"
           id="path70" />
        <path
           d="m 830.42294,345.26602 q -0.125,3.03125 -0.57812,4.98438 -0.4375,1.875 -1.34375,3.51562 -2,3.89063 -5.65625,6.01563 -0.42188,0.26562 -0.64063,0.26562 -0.1875,0 -0.35937,-0.15625 -0.5625,-0.54687 -1.78125,-1.0625 2.53125,-1.3125 4.03125,-2.78125 1.3125,-1.28125 2.23437,-3.0625 1.5625,-2.92187 1.67188,-7.71875 h -6.53125 q -1.89063,0 -4.60938,0.20313 -0.0312,0 -0.0937,0 -0.28125,0 -0.35937,-0.48438 -0.10938,-0.64062 -0.1875,-1.85937 2.3125,0.15625 5.25,0.15625 h 13.85937 q 3.32813,0 5.8125,-0.15625 0.35938,0 0.35938,0.51562 v 1.34375 q 0,0.40625 -0.42188,0.40625 -3.64062,-0.125 -5.71875,-0.125 z m -10.29687,-9.20312 q 2.35937,0.15625 5.15625,0.15625 h 6.20312 q 3.70313,0 5.40625,-0.0937 0.0625,0 0.0781,0 0.26562,0 0.26562,0.42187 0.0312,0.3125 0.0312,0.64063 0,0.34375 -0.0312,0.625 0,0.45312 -0.375,0.45312 -1.73437,-0.0625 -5.375,-0.0625 h -6.20312 q -2.5,0 -4.57813,0.125 -0.0625,0 -0.0937,0 -0.28125,0 -0.32812,-0.42187 -0.10938,-0.85938 -0.15625,-1.84375 z"
           style="font-weight:500;font-size:32px;font-family:'Yu Gothic Medium', 'Yu Gothic Medium_MSFontService', sans-serif"
           id="path72" />
        <path
           d="m 859.04794,334.7504 q 1.95313,0.53125 2.84375,1.10937 0.21875,0.15625 0.21875,0.40625 0,0.25 -0.25,0.5625 -0.60937,0.65625 -1.15625,2.32813 -2.82812,8.45312 -5.98437,15.5625 8.9375,-0.73438 13.64062,-1.45313 -1.73437,-3.09375 -3.875,-5.59375 0.20313,-0.125 0.8125,-0.48437 0.4375,-0.28125 0.6875,-0.42188 0.17188,-0.0937 0.28125,-0.0937 0.17188,0 0.35938,0.26563 3.46875,4.0625 6.21875,9.89062 0.0781,0.14063 0.0781,0.26563 0,0.20312 -0.23437,0.375 -0.64063,0.375 -1.42188,0.76562 -0.10937,0.0625 -0.20312,0.0625 -0.20313,0 -0.375,-0.34375 -0.84375,-1.82812 -1.34375,-2.73437 -5,0.76562 -15.73438,1.92187 -2.70312,0.29688 -3.26562,0.60938 -0.34375,0.21875 -0.57813,0.21875 -0.29687,0 -0.45312,-0.34375 -0.28125,-0.65625 -0.76563,-2.65625 0.70313,0.0625 1.4375,0.0625 0.85938,0 2.34375,-0.0937 3.79688,-9.01563 5.71875,-15.26563 0.89063,-2.84375 1,-4.92187 z"
           style="font-weight:500;font-size:32px;font-family:'Yu Gothic Medium', 'Yu Gothic Medium_MSFontService', sans-serif"
           id="path74" />
        <path
           d="m 889.77722,345.85977 q 2.20313,0.28125 7.07813,0.28125 h 9.8125 q 3.35937,0 7.01562,-0.0937 0.10938,-0.0156 0.14063,-0.0156 0.32812,0 0.32812,0.39062 0.0312,0.32813 0.0312,0.82813 0,0.48437 -0.0312,0.84375 0,0.39062 -0.32812,0.39062 -0.0781,0 -0.14063,-0.0156 -2.40625,-0.0625 -6.92187,-0.0625 h -11.79688 q -1.92187,0 -3.45312,0.1875 -0.23438,0.0312 -0.625,0.0937 -0.20313,0.0312 -0.25,0.0312 -0.40625,0 -0.54688,-0.45313 -0.20312,-0.85937 -0.3125,-2.40625 z"
           style="font-weight:500;font-size:32px;font-family:'Yu Gothic Medium', 'Yu Gothic Medium_MSFontService', sans-serif"
           id="path76" />
      </g>
      <path
         id="rect31"
         d="m 292,155.1254 h 264 v 13 H 292 Z" />
      <path
         id="rect33"
         d="m 292,288.1254 h 625 v 13 H 292 Z" />
      <path
         id="rect35"
         d="m 653,155.1254 h 264 v 13 H 653 Z" />
      <g
         clip-path="url(#clip1)"
         id="g43"
         transform="translate(-2.1649043e-8,14.125465)">
        <g
           clip-path="url(#clip2)"
           id="g41">
          <g
             clip-path="url(#clip3)"
             id="g39">
            <path
               d="m 604.999,93 c -6.305,7.568 -16.396,11.982 -27.748,12.612 0,0 0,19.55 0,25.857 0,17.027 27.748,31.531 27.748,31.531 0,0 27.75,-14.504 27.75,-31.531 0,-6.307 0,-25.857 0,-25.857 -11.353,-0.63 -21.444,-5.044 -27.75,-12.612 z"
               id="path37" />
          </g>
        </g>
      </g>
    </g>
  </g>
</svg>
